<?xml version="1.0" encoding="UTF-8"?>
<svg xmlns="http://www.w3.org/2000/svg" xmlns:xlink="http://www.w3.org/1999/xlink" width="450pt" height="450pt" viewBox="0 0 450 450" version="1.1">
<g id="surface1">
<rect x="0" y="0" width="450" height="450" style="fill:rgb(100%,100%,100%);fill-opacity:1;stroke:none;"/>
<path style="fill-rule:nonzero;fill:rgb(26.700401%,0.4874%,32.941499%);fill-opacity:1;stroke-width:1;stroke-linecap:butt;stroke-linejoin:miter;stroke:rgb(26.700401%,0.4874%,32.941499%);stroke-opacity:1;stroke-miterlimit:10;" d="M 429.161458 86.864583 L 426.833333 84.567708 L 372.947917 124.192708 L 375.822917 127.03125 Z M 429.161458 86.864583 " transform="matrix(0.75,0,0,0.75,0,0)"/>
<path style="fill-rule:nonzero;fill:rgb(26.700401%,0.4874%,32.941499%);fill-opacity:1;stroke-width:1;stroke-linecap:butt;stroke-linejoin:miter;stroke:rgb(26.700401%,0.4874%,32.941499%);stroke-opacity:1;stroke-miterlimit:10;" d="M 428 87.234375 L 427.822917 87.229167 L 427.645833 87.208333 L 427.473958 87.166667 L 427.3125 87.114583 L 427.151042 87.052083 L 427 86.973958 L 426.859375 86.880208 L 426.729167 86.776042 L 426.609375 86.661458 L 426.510417 86.541667 L 426.421875 86.40625 L 426.348958 86.270833 L 426.291667 86.125 L 426.25 85.979167 L 426.229167 85.828125 L 426.223958 85.677083 L 426.239583 85.526042 L 426.270833 85.375 L 426.317708 85.229167 L 426.380208 85.088542 L 426.463542 84.953125 L 426.557292 84.828125 L 426.666667 84.708333 L 426.791667 84.598958 L 426.927083 84.5 L 427.072917 84.416667 L 427.229167 84.34375 L 427.390625 84.286458 L 427.5625 84.239583 L 427.734375 84.208333 L 427.911458 84.192708 L 428.088542 84.192708 L 428.265625 84.208333 L 428.4375 84.239583 L 428.604167 84.286458 L 428.770833 84.34375 L 428.927083 84.416667 L 429.072917 84.5 L 429.208333 84.598958 L 429.328125 84.708333 L 429.442708 84.828125 L 429.536458 84.953125 L 429.619792 85.088542 L 429.682292 85.229167 L 429.729167 85.375 L 429.760417 85.526042 L 429.776042 85.677083 L 429.770833 85.828125 L 429.75 85.979167 L 429.708333 86.125 L 429.651042 86.270833 L 429.578125 86.40625 L 429.489583 86.541667 L 429.385417 86.661458 L 429.270833 86.776042 L 429.140625 86.880208 L 429 86.973958 L 428.848958 87.052083 L 428.6875 87.114583 L 428.520833 87.166667 L 428.348958 87.208333 L 428.177083 87.229167 Z M 428 87.234375 " transform="matrix(0.75,0,0,0.75,0,0)"/>
<path style="fill-rule:nonzero;fill:rgb(26.700401%,0.4874%,32.941499%);fill-opacity:1;stroke-width:1;stroke-linecap:butt;stroke-linejoin:miter;stroke:rgb(26.700401%,0.4874%,32.941499%);stroke-opacity:1;stroke-miterlimit:10;" d="M 252.666667 544.947917 L 252.489583 544.942708 L 252.3125 544.921875 L 252.145833 544.880208 L 251.979167 544.828125 L 251.817708 544.765625 L 251.666667 544.6875 L 251.526042 544.59375 L 251.395833 544.489583 L 251.28125 544.375 L 251.177083 544.255208 L 251.088542 544.125 L 251.015625 543.984375 L 250.958333 543.838542 L 250.916667 543.692708 L 250.895833 543.541667 L 250.890625 543.390625 L 250.90625 543.239583 L 250.9375 543.088542 L 250.984375 542.942708 L 251.046875 542.802083 L 251.130208 542.666667 L 251.223958 542.541667 L 251.333333 542.421875 L 251.458333 542.3125 L 251.59375 542.213542 L 251.739583 542.130208 L 251.895833 542.057292 L 252.057292 542 L 252.229167 541.953125 L 252.401042 541.921875 L 252.578125 541.911458 L 252.755208 541.911458 L 252.932292 541.921875 L 253.104167 541.953125 L 253.276042 542 L 253.4375 542.057292 L 253.59375 542.130208 L 253.739583 542.213542 L 253.875 542.3125 L 254 542.421875 L 254.109375 542.541667 L 254.203125 542.666667 L 254.286458 542.802083 L 254.348958 542.942708 L 254.395833 543.088542 L 254.427083 543.239583 L 254.442708 543.390625 L 254.4375 543.541667 L 254.416667 543.692708 L 254.375 543.838542 L 254.317708 543.984375 L 254.244792 544.125 L 254.15625 544.255208 L 254.052083 544.375 L 253.9375 544.489583 L 253.807292 544.59375 L 253.666667 544.6875 L 253.515625 544.765625 L 253.354167 544.828125 L 253.1875 544.880208 L 253.020833 544.921875 L 252.84375 544.942708 Z M 252.666667 544.947917 " transform="matrix(0.75,0,0,0.75,0,0)"/>
<path style="fill-rule:nonzero;fill:rgb(26.700401%,0.4874%,32.941499%);fill-opacity:1;stroke-width:1;stroke-linecap:butt;stroke-linejoin:miter;stroke:rgb(26.700401%,0.4874%,32.941499%);stroke-opacity:1;stroke-miterlimit:10;" d="M 410.401042 73.140625 L 407.296875 71.666667 L 372.46875 124.697917 L 376.302083 126.520833 Z M 410.401042 73.140625 " transform="matrix(0.75,0,0,0.75,0,0)"/>
<path style="fill-rule:nonzero;fill:rgb(26.700401%,0.4874%,32.941499%);fill-opacity:1;stroke-width:1;stroke-linecap:butt;stroke-linejoin:miter;stroke:rgb(26.700401%,0.4874%,32.941499%);stroke-opacity:1;stroke-miterlimit:10;" d="M 408.848958 73.927083 L 408.671875 73.916667 L 408.494792 73.895833 L 408.322917 73.859375 L 408.15625 73.807292 L 408 73.739583 L 407.848958 73.661458 L 407.703125 73.567708 L 407.578125 73.463542 L 407.458333 73.354167 L 407.354167 73.229167 L 407.265625 73.098958 L 407.192708 72.958333 L 407.135417 72.817708 L 407.098958 72.666667 L 407.078125 72.515625 L 407.072917 72.364583 L 407.083333 72.213542 L 407.114583 72.0625 L 407.161458 71.916667 L 407.229167 71.776042 L 407.307292 71.640625 L 407.40625 71.515625 L 407.515625 71.395833 L 407.640625 71.286458 L 407.776042 71.192708 L 407.921875 71.104167 L 408.078125 71.03125 L 408.239583 70.973958 L 408.40625 70.927083 L 408.583333 70.901042 L 408.760417 70.885417 L 408.9375 70.885417 L 409.109375 70.901042 L 409.286458 70.927083 L 409.453125 70.973958 L 409.614583 71.03125 L 409.770833 71.104167 L 409.916667 71.192708 L 410.052083 71.286458 L 410.177083 71.395833 L 410.286458 71.515625 L 410.385417 71.640625 L 410.463542 71.776042 L 410.53125 71.916667 L 410.578125 72.0625 L 410.609375 72.213542 L 410.619792 72.364583 L 410.614583 72.515625 L 410.59375 72.666667 L 410.557292 72.817708 L 410.5 72.958333 L 410.427083 73.098958 L 410.338542 73.229167 L 410.234375 73.354167 L 410.119792 73.463542 L 409.989583 73.567708 L 409.848958 73.661458 L 409.697917 73.739583 L 409.536458 73.807292 L 409.369792 73.859375 L 409.197917 73.895833 L 409.020833 73.916667 Z M 408.848958 73.927083 " transform="matrix(0.75,0,0,0.75,0,0)"/>
<path style="fill-rule:nonzero;fill:rgb(26.700401%,0.4874%,32.941499%);fill-opacity:1;stroke-width:1;stroke-linecap:butt;stroke-linejoin:miter;stroke:rgb(26.700401%,0.4874%,32.941499%);stroke-opacity:1;stroke-miterlimit:10;" d="M 252.666667 544.947917 L 252.489583 544.942708 L 252.3125 544.921875 L 252.145833 544.880208 L 251.979167 544.828125 L 251.817708 544.765625 L 251.666667 544.6875 L 251.526042 544.59375 L 251.395833 544.489583 L 251.28125 544.375 L 251.177083 544.255208 L 251.088542 544.125 L 251.015625 543.984375 L 250.958333 543.838542 L 250.916667 543.692708 L 250.895833 543.541667 L 250.890625 543.390625 L 250.90625 543.239583 L 250.9375 543.088542 L 250.984375 542.942708 L 251.046875 542.802083 L 251.130208 542.666667 L 251.223958 542.541667 L 251.333333 542.421875 L 251.458333 542.3125 L 251.59375 542.213542 L 251.739583 542.130208 L 251.895833 542.057292 L 252.057292 542 L 252.229167 541.953125 L 252.401042 541.921875 L 252.578125 541.911458 L 252.755208 541.911458 L 252.932292 541.921875 L 253.104167 541.953125 L 253.276042 542 L 253.4375 542.057292 L 253.59375 542.130208 L 253.739583 542.213542 L 253.875 542.3125 L 254 542.421875 L 254.109375 542.541667 L 254.203125 542.666667 L 254.286458 542.802083 L 254.348958 542.942708 L 254.395833 543.088542 L 254.427083 543.239583 L 254.442708 543.390625 L 254.4375 543.541667 L 254.416667 543.692708 L 254.375 543.838542 L 254.317708 543.984375 L 254.244792 544.125 L 254.15625 544.255208 L 254.052083 544.375 L 253.9375 544.489583 L 253.807292 544.59375 L 253.666667 544.6875 L 253.515625 544.765625 L 253.354167 544.828125 L 253.1875 544.880208 L 253.020833 544.921875 L 252.84375 544.942708 Z M 252.666667 544.947917 " transform="matrix(0.75,0,0,0.75,0,0)"/>
<path style="fill-rule:nonzero;fill:rgb(25.393501%,26.525399%,52.998298%);fill-opacity:1;stroke-width:1;stroke-linecap:butt;stroke-linejoin:miter;stroke:rgb(25.393501%,26.525399%,52.998298%);stroke-opacity:1;stroke-miterlimit:10;" d="M 376.572917 127.130208 L 372.197917 124.088542 L 312.057292 186.760417 L 317.463542 190.515625 Z M 376.572917 127.130208 " transform="matrix(0.75,0,0,0.75,0,0)"/>
<path style="fill-rule:nonzero;fill:rgb(25.393501%,26.525399%,52.998298%);fill-opacity:1;stroke-width:1;stroke-linecap:butt;stroke-linejoin:miter;stroke:rgb(25.393501%,26.525399%,52.998298%);stroke-opacity:1;stroke-miterlimit:10;" d="M 374.385417 128.026042 L 374.104167 128.015625 L 373.828125 127.979167 L 373.552083 127.916667 L 373.291667 127.838542 L 373.036458 127.734375 L 372.796875 127.604167 L 372.572917 127.463542 L 372.369792 127.296875 L 372.182292 127.114583 L 372.020833 126.921875 L 371.880208 126.713542 L 371.760417 126.494792 L 371.671875 126.265625 L 371.609375 126.03125 L 371.572917 125.791667 L 371.567708 125.552083 L 371.588542 125.3125 L 371.640625 125.072917 L 371.713542 124.84375 L 371.817708 124.619792 L 371.942708 124.401042 L 372.098958 124.203125 L 372.270833 124.010417 L 372.46875 123.838542 L 372.682292 123.6875 L 372.916667 123.552083 L 373.161458 123.4375 L 373.421875 123.34375 L 373.6875 123.270833 L 373.963542 123.223958 L 374.244792 123.197917 L 374.526042 123.197917 L 374.807292 123.223958 L 375.078125 123.270833 L 375.348958 123.34375 L 375.609375 123.4375 L 375.854167 123.552083 L 376.088542 123.6875 L 376.302083 123.838542 L 376.5 124.010417 L 376.671875 124.203125 L 376.822917 124.401042 L 376.953125 124.619792 L 377.057292 124.84375 L 377.130208 125.072917 L 377.182292 125.3125 L 377.203125 125.552083 L 377.192708 125.791667 L 377.161458 126.03125 L 377.098958 126.265625 L 377.010417 126.494792 L 376.890625 126.713542 L 376.75 126.921875 L 376.588542 127.114583 L 376.401042 127.296875 L 376.197917 127.463542 L 375.973958 127.604167 L 375.734375 127.734375 L 375.479167 127.838542 L 375.213542 127.916667 L 374.942708 127.979167 L 374.666667 128.015625 Z M 374.385417 128.026042 " transform="matrix(0.75,0,0,0.75,0,0)"/>
<path style="fill-rule:nonzero;fill:rgb(25.393501%,26.525399%,52.998298%);fill-opacity:1;stroke-width:1;stroke-linecap:butt;stroke-linejoin:miter;stroke:rgb(25.393501%,26.525399%,52.998298%);stroke-opacity:1;stroke-miterlimit:10;" d="M 252.666667 545.84375 L 252.385417 545.833333 L 252.109375 545.796875 L 251.838542 545.734375 L 251.572917 545.65625 L 251.317708 545.552083 L 251.078125 545.421875 L 250.854167 545.276042 L 250.651042 545.114583 L 250.463542 544.932292 L 250.302083 544.739583 L 250.161458 544.53125 L 250.041667 544.3125 L 249.953125 544.083333 L 249.890625 543.848958 L 249.859375 543.609375 L 249.848958 543.369792 L 249.869792 543.130208 L 249.921875 542.890625 L 249.994792 542.661458 L 250.098958 542.4375 L 250.223958 542.21875 L 250.380208 542.020833 L 250.552083 541.828125 L 250.75 541.65625 L 250.963542 541.505208 L 251.197917 541.369792 L 251.442708 541.255208 L 251.703125 541.161458 L 251.973958 541.088542 L 252.244792 541.041667 L 252.526042 541.015625 L 252.807292 541.015625 L 253.088542 541.041667 L 253.359375 541.088542 L 253.630208 541.161458 L 253.890625 541.255208 L 254.135417 541.369792 L 254.369792 541.505208 L 254.583333 541.65625 L 254.78125 541.828125 L 254.953125 542.020833 L 255.109375 542.21875 L 255.234375 542.4375 L 255.338542 542.661458 L 255.411458 542.890625 L 255.463542 543.130208 L 255.484375 543.369792 L 255.473958 543.609375 L 255.442708 543.848958 L 255.380208 544.083333 L 255.291667 544.3125 L 255.171875 544.53125 L 255.03125 544.739583 L 254.869792 544.932292 L 254.682292 545.114583 L 254.479167 545.276042 L 254.255208 545.421875 L 254.015625 545.552083 L 253.760417 545.65625 L 253.494792 545.734375 L 253.223958 545.796875 L 252.947917 545.833333 Z M 252.666667 545.84375 " transform="matrix(0.75,0,0,0.75,0,0)"/>
<path style="fill-rule:nonzero;fill:rgb(26.700401%,0.4874%,32.941499%);fill-opacity:1;stroke-width:1;stroke-linecap:butt;stroke-linejoin:miter;stroke:rgb(26.700401%,0.4874%,32.941499%);stroke-opacity:1;stroke-miterlimit:10;" d="M 386.4375 66.208333 L 384.8125 64.885417 L 335.484375 108.661458 L 338.098958 110.78125 Z M 386.4375 66.208333 " transform="matrix(0.75,0,0,0.75,0,0)"/>
<path style="fill-rule:nonzero;fill:rgb(26.700401%,0.4874%,32.941499%);fill-opacity:1;stroke-width:1;stroke-linecap:butt;stroke-linejoin:miter;stroke:rgb(26.700401%,0.4874%,32.941499%);stroke-opacity:1;stroke-miterlimit:10;" d="M 385.625 66.505208 L 385.515625 66.5 L 385.40625 66.484375 L 385.296875 66.463542 L 385.192708 66.432292 L 385.088542 66.390625 L 384.994792 66.338542 L 384.90625 66.28125 L 384.822917 66.213542 L 384.75 66.145833 L 384.6875 66.067708 L 384.630208 65.984375 L 384.583333 65.895833 L 384.546875 65.807292 L 384.526042 65.713542 L 384.510417 65.619792 L 384.505208 65.520833 L 384.515625 65.427083 L 384.536458 65.333333 L 384.567708 65.239583 L 384.604167 65.151042 L 384.65625 65.067708 L 384.71875 64.989583 L 384.786458 64.911458 L 384.864583 64.84375 L 384.947917 64.78125 L 385.041667 64.729167 L 385.140625 64.682292 L 385.244792 64.645833 L 385.348958 64.619792 L 385.458333 64.598958 L 385.567708 64.588542 L 385.682292 64.588542 L 385.791667 64.598958 L 385.901042 64.619792 L 386.005208 64.645833 L 386.109375 64.682292 L 386.208333 64.729167 L 386.302083 64.78125 L 386.385417 64.84375 L 386.463542 64.911458 L 386.53125 64.989583 L 386.59375 65.067708 L 386.645833 65.151042 L 386.6875 65.239583 L 386.713542 65.333333 L 386.734375 65.427083 L 386.744792 65.520833 L 386.739583 65.619792 L 386.723958 65.713542 L 386.703125 65.807292 L 386.666667 65.895833 L 386.619792 65.984375 L 386.5625 66.067708 L 386.5 66.145833 L 386.427083 66.213542 L 386.34375 66.28125 L 386.255208 66.338542 L 386.161458 66.390625 L 386.057292 66.432292 L 385.953125 66.463542 L 385.848958 66.484375 L 385.734375 66.5 Z M 385.625 66.505208 " transform="matrix(0.75,0,0,0.75,0,0)"/>
<path style="fill-rule:nonzero;fill:rgb(26.700401%,0.4874%,32.941499%);fill-opacity:1;stroke-width:1;stroke-linecap:butt;stroke-linejoin:miter;stroke:rgb(26.700401%,0.4874%,32.941499%);stroke-opacity:1;stroke-miterlimit:10;" d="M 252.666667 544.385417 L 252.557292 544.380208 L 252.442708 544.369792 L 252.338542 544.34375 L 252.234375 544.3125 L 252.130208 544.270833 L 252.036458 544.21875 L 251.947917 544.161458 L 251.864583 544.098958 L 251.791667 544.026042 L 251.729167 543.947917 L 251.671875 543.864583 L 251.625 543.78125 L 251.588542 543.6875 L 251.567708 543.59375 L 251.552083 543.5 L 251.546875 543.40625 L 251.557292 543.307292 L 251.578125 543.213542 L 251.604167 543.125 L 251.645833 543.036458 L 251.697917 542.947917 L 251.760417 542.869792 L 251.828125 542.796875 L 251.90625 542.723958 L 251.989583 542.666667 L 252.083333 542.609375 L 252.182292 542.5625 L 252.286458 542.526042 L 252.390625 542.5 L 252.5 542.479167 L 252.609375 542.46875 L 252.723958 542.46875 L 252.833333 542.479167 L 252.942708 542.5 L 253.046875 542.526042 L 253.151042 542.5625 L 253.25 542.609375 L 253.34375 542.666667 L 253.427083 542.723958 L 253.505208 542.796875 L 253.572917 542.869792 L 253.635417 542.947917 L 253.6875 543.036458 L 253.729167 543.125 L 253.755208 543.213542 L 253.776042 543.307292 L 253.786458 543.40625 L 253.78125 543.5 L 253.765625 543.59375 L 253.744792 543.6875 L 253.708333 543.78125 L 253.661458 543.864583 L 253.604167 543.947917 L 253.541667 544.026042 L 253.46875 544.098958 L 253.385417 544.161458 L 253.296875 544.21875 L 253.203125 544.270833 L 253.098958 544.3125 L 252.994792 544.34375 L 252.890625 544.369792 L 252.776042 544.380208 Z M 252.666667 544.385417 " transform="matrix(0.75,0,0,0.75,0,0)"/>
<path style="fill-rule:nonzero;fill:rgb(26.700401%,0.4874%,32.941499%);fill-opacity:1;stroke-width:1;stroke-linecap:butt;stroke-linejoin:miter;stroke:rgb(26.700401%,0.4874%,32.941499%);stroke-opacity:1;stroke-miterlimit:10;" d="M 366.078125 54.276042 L 364.026042 53.510417 L 335.140625 109.109375 L 338.442708 110.338542 Z M 366.078125 54.276042 " transform="matrix(0.75,0,0,0.75,0,0)"/>
<path style="fill-rule:nonzero;fill:rgb(26.700401%,0.4874%,32.941499%);fill-opacity:1;stroke-width:1;stroke-linecap:butt;stroke-linejoin:miter;stroke:rgb(26.700401%,0.4874%,32.941499%);stroke-opacity:1;stroke-miterlimit:10;" d="M 365.052083 54.854167 L 364.942708 54.848958 L 364.833333 54.833333 L 364.723958 54.8125 L 364.619792 54.776042 L 364.515625 54.734375 L 364.421875 54.6875 L 364.333333 54.630208 L 364.25 54.5625 L 364.177083 54.489583 L 364.114583 54.416667 L 364.057292 54.333333 L 364.010417 54.244792 L 363.973958 54.15625 L 363.953125 54.0625 L 363.9375 53.963542 L 363.9375 53.869792 L 363.942708 53.776042 L 363.963542 53.682292 L 363.994792 53.588542 L 364.03125 53.5 L 364.083333 53.416667 L 364.145833 53.333333 L 364.213542 53.260417 L 364.291667 53.192708 L 364.380208 53.130208 L 364.46875 53.078125 L 364.567708 53.03125 L 364.671875 52.994792 L 364.776042 52.963542 L 364.885417 52.947917 L 364.994792 52.9375 L 365.109375 52.9375 L 365.21875 52.947917 L 365.328125 52.963542 L 365.4375 52.994792 L 365.536458 53.03125 L 365.635417 53.078125 L 365.729167 53.130208 L 365.8125 53.192708 L 365.890625 53.260417 L 365.958333 53.333333 L 366.020833 53.416667 L 366.072917 53.5 L 366.114583 53.588542 L 366.140625 53.682292 L 366.161458 53.776042 L 366.171875 53.869792 L 366.166667 53.963542 L 366.15625 54.0625 L 366.130208 54.15625 L 366.09375 54.244792 L 366.046875 54.333333 L 365.994792 54.416667 L 365.927083 54.489583 L 365.854167 54.5625 L 365.770833 54.630208 L 365.682292 54.6875 L 365.588542 54.734375 L 365.489583 54.776042 L 365.380208 54.8125 L 365.276042 54.833333 L 365.166667 54.848958 Z M 365.052083 54.854167 " transform="matrix(0.75,0,0,0.75,0,0)"/>
<path style="fill-rule:nonzero;fill:rgb(26.700401%,0.4874%,32.941499%);fill-opacity:1;stroke-width:1;stroke-linecap:butt;stroke-linejoin:miter;stroke:rgb(26.700401%,0.4874%,32.941499%);stroke-opacity:1;stroke-miterlimit:10;" d="M 252.666667 544.385417 L 252.557292 544.380208 L 252.442708 544.369792 L 252.338542 544.34375 L 252.234375 544.3125 L 252.130208 544.270833 L 252.036458 544.21875 L 251.947917 544.161458 L 251.864583 544.098958 L 251.791667 544.026042 L 251.729167 543.947917 L 251.671875 543.864583 L 251.625 543.78125 L 251.588542 543.6875 L 251.567708 543.59375 L 251.552083 543.5 L 251.546875 543.40625 L 251.557292 543.307292 L 251.578125 543.213542 L 251.604167 543.125 L 251.645833 543.036458 L 251.697917 542.947917 L 251.760417 542.869792 L 251.828125 542.796875 L 251.90625 542.723958 L 251.989583 542.666667 L 252.083333 542.609375 L 252.182292 542.5625 L 252.286458 542.526042 L 252.390625 542.5 L 252.5 542.479167 L 252.609375 542.46875 L 252.723958 542.46875 L 252.833333 542.479167 L 252.942708 542.5 L 253.046875 542.526042 L 253.151042 542.5625 L 253.25 542.609375 L 253.34375 542.666667 L 253.427083 542.723958 L 253.505208 542.796875 L 253.572917 542.869792 L 253.635417 542.947917 L 253.6875 543.036458 L 253.729167 543.125 L 253.755208 543.213542 L 253.776042 543.307292 L 253.786458 543.40625 L 253.78125 543.5 L 253.765625 543.59375 L 253.744792 543.6875 L 253.708333 543.78125 L 253.661458 543.864583 L 253.604167 543.947917 L 253.541667 544.026042 L 253.46875 544.098958 L 253.385417 544.161458 L 253.296875 544.21875 L 253.203125 544.270833 L 253.098958 544.3125 L 252.994792 544.34375 L 252.890625 544.369792 L 252.776042 544.380208 Z M 252.666667 544.385417 " transform="matrix(0.75,0,0,0.75,0,0)"/>
<path style="fill-rule:nonzero;fill:rgb(26.700401%,0.4874%,32.941499%);fill-opacity:1;stroke-width:1;stroke-linecap:butt;stroke-linejoin:miter;stroke:rgb(26.700401%,0.4874%,32.941499%);stroke-opacity:1;stroke-miterlimit:10;" d="M 342.1875 49.036458 L 339.953125 48.916667 L 334.994792 109.630208 L 338.588542 109.817708 Z M 342.1875 49.036458 " transform="matrix(0.75,0,0,0.75,0,0)"/>
<path style="fill-rule:nonzero;fill:rgb(26.700401%,0.4874%,32.941499%);fill-opacity:1;stroke-width:1;stroke-linecap:butt;stroke-linejoin:miter;stroke:rgb(26.700401%,0.4874%,32.941499%);stroke-opacity:1;stroke-miterlimit:10;" d="M 341.072917 49.932292 L 340.958333 49.932292 L 340.848958 49.916667 L 340.744792 49.890625 L 340.635417 49.859375 L 340.536458 49.817708 L 340.442708 49.765625 L 340.354167 49.708333 L 340.270833 49.645833 L 340.197917 49.572917 L 340.130208 49.494792 L 340.078125 49.411458 L 340.03125 49.328125 L 339.994792 49.234375 L 339.96875 49.140625 L 339.958333 49.046875 L 339.953125 48.953125 L 339.963542 48.859375 L 339.979167 48.760417 L 340.010417 48.671875 L 340.052083 48.583333 L 340.104167 48.494792 L 340.161458 48.416667 L 340.234375 48.34375 L 340.3125 48.276042 L 340.395833 48.213542 L 340.489583 48.15625 L 340.588542 48.114583 L 340.6875 48.078125 L 340.796875 48.046875 L 340.90625 48.026042 L 341.015625 48.020833 L 341.125 48.020833 L 341.239583 48.026042 L 341.348958 48.046875 L 341.453125 48.078125 L 341.557292 48.114583 L 341.65625 48.15625 L 341.744792 48.213542 L 341.833333 48.276042 L 341.911458 48.34375 L 341.979167 48.416667 L 342.041667 48.494792 L 342.088542 48.583333 L 342.130208 48.671875 L 342.161458 48.760417 L 342.182292 48.859375 L 342.1875 48.953125 L 342.1875 49.046875 L 342.171875 49.140625 L 342.145833 49.234375 L 342.114583 49.328125 L 342.067708 49.411458 L 342.010417 49.494792 L 341.947917 49.572917 L 341.869792 49.645833 L 341.791667 49.708333 L 341.703125 49.765625 L 341.604167 49.817708 L 341.505208 49.859375 L 341.401042 49.890625 L 341.291667 49.916667 L 341.182292 49.932292 Z M 341.072917 49.932292 " transform="matrix(0.75,0,0,0.75,0,0)"/>
<path style="fill-rule:nonzero;fill:rgb(26.700401%,0.4874%,32.941499%);fill-opacity:1;stroke-width:1;stroke-linecap:butt;stroke-linejoin:miter;stroke:rgb(26.700401%,0.4874%,32.941499%);stroke-opacity:1;stroke-miterlimit:10;" d="M 252.666667 544.385417 L 252.557292 544.380208 L 252.442708 544.369792 L 252.338542 544.34375 L 252.234375 544.3125 L 252.130208 544.270833 L 252.036458 544.21875 L 251.947917 544.161458 L 251.864583 544.098958 L 251.791667 544.026042 L 251.729167 543.947917 L 251.671875 543.864583 L 251.625 543.78125 L 251.588542 543.6875 L 251.567708 543.59375 L 251.552083 543.5 L 251.546875 543.40625 L 251.557292 543.307292 L 251.578125 543.213542 L 251.604167 543.125 L 251.645833 543.036458 L 251.697917 542.947917 L 251.760417 542.869792 L 251.828125 542.796875 L 251.90625 542.723958 L 251.989583 542.666667 L 252.083333 542.609375 L 252.182292 542.5625 L 252.286458 542.526042 L 252.390625 542.5 L 252.5 542.479167 L 252.609375 542.46875 L 252.723958 542.46875 L 252.833333 542.479167 L 252.942708 542.5 L 253.046875 542.526042 L 253.151042 542.5625 L 253.25 542.609375 L 253.34375 542.666667 L 253.427083 542.723958 L 253.505208 542.796875 L 253.572917 542.869792 L 253.635417 542.947917 L 253.6875 543.036458 L 253.729167 543.125 L 253.755208 543.213542 L 253.776042 543.307292 L 253.786458 543.40625 L 253.78125 543.5 L 253.765625 543.59375 L 253.744792 543.6875 L 253.708333 543.78125 L 253.661458 543.864583 L 253.604167 543.947917 L 253.541667 544.026042 L 253.46875 544.098958 L 253.385417 544.161458 L 253.296875 544.21875 L 253.203125 544.270833 L 253.098958 544.3125 L 252.994792 544.34375 L 252.890625 544.369792 L 252.776042 544.380208 Z M 252.666667 544.385417 " transform="matrix(0.75,0,0,0.75,0,0)"/>
<path style="fill-rule:nonzero;fill:rgb(26.700401%,0.4874%,32.941499%);fill-opacity:1;stroke-width:1;stroke-linecap:butt;stroke-linejoin:miter;stroke:rgb(26.700401%,0.4874%,32.941499%);stroke-opacity:1;stroke-miterlimit:10;" d="M 317.645833 51.109375 L 315.5 51.65625 L 335.067708 110.161458 L 338.515625 109.28125 Z M 317.645833 51.109375 " transform="matrix(0.75,0,0,0.75,0,0)"/>
<path style="fill-rule:nonzero;fill:rgb(26.700401%,0.4874%,32.941499%);fill-opacity:1;stroke-width:1;stroke-linecap:butt;stroke-linejoin:miter;stroke:rgb(26.700401%,0.4874%,32.941499%);stroke-opacity:1;stroke-miterlimit:10;" d="M 316.572917 52.34375 L 316.463542 52.338542 L 316.354167 52.322917 L 316.244792 52.302083 L 316.140625 52.265625 L 316.041667 52.223958 L 315.942708 52.177083 L 315.854167 52.119792 L 315.697917 51.984375 L 315.635417 51.90625 L 315.578125 51.822917 L 315.53125 51.734375 L 315.5 51.645833 L 315.473958 51.552083 L 315.458333 51.458333 L 315.458333 51.359375 L 315.463542 51.265625 L 315.484375 51.171875 L 315.515625 51.078125 L 315.557292 50.989583 L 315.604167 50.90625 L 315.666667 50.822917 L 315.734375 50.75 L 315.8125 50.682292 L 315.901042 50.619792 L 315.989583 50.567708 L 316.088542 50.520833 L 316.192708 50.484375 L 316.296875 50.458333 L 316.40625 50.4375 L 316.520833 50.427083 L 316.630208 50.427083 L 316.739583 50.4375 L 316.848958 50.458333 L 316.958333 50.484375 L 317.057292 50.520833 L 317.15625 50.567708 L 317.25 50.619792 L 317.333333 50.682292 L 317.411458 50.75 L 317.484375 50.822917 L 317.541667 50.90625 L 317.59375 50.989583 L 317.635417 51.078125 L 317.666667 51.171875 L 317.682292 51.265625 L 317.692708 51.359375 L 317.6875 51.458333 L 317.677083 51.552083 L 317.651042 51.645833 L 317.614583 51.734375 L 317.567708 51.822917 L 317.515625 51.90625 L 317.447917 51.984375 L 317.375 52.052083 L 317.291667 52.119792 L 317.203125 52.177083 L 317.109375 52.223958 L 317.010417 52.265625 L 316.90625 52.302083 L 316.796875 52.322917 L 316.6875 52.338542 Z M 316.572917 52.34375 " transform="matrix(0.75,0,0,0.75,0,0)"/>
<path style="fill-rule:nonzero;fill:rgb(26.700401%,0.4874%,32.941499%);fill-opacity:1;stroke-width:1;stroke-linecap:butt;stroke-linejoin:miter;stroke:rgb(26.700401%,0.4874%,32.941499%);stroke-opacity:1;stroke-miterlimit:10;" d="M 252.666667 544.385417 L 252.557292 544.380208 L 252.442708 544.369792 L 252.338542 544.34375 L 252.234375 544.3125 L 252.130208 544.270833 L 252.036458 544.21875 L 251.947917 544.161458 L 251.864583 544.098958 L 251.791667 544.026042 L 251.729167 543.947917 L 251.671875 543.864583 L 251.625 543.78125 L 251.588542 543.6875 L 251.567708 543.59375 L 251.552083 543.5 L 251.546875 543.40625 L 251.557292 543.307292 L 251.578125 543.213542 L 251.604167 543.125 L 251.645833 543.036458 L 251.697917 542.947917 L 251.760417 542.869792 L 251.828125 542.796875 L 251.90625 542.723958 L 251.989583 542.666667 L 252.083333 542.609375 L 252.182292 542.5625 L 252.286458 542.526042 L 252.390625 542.5 L 252.5 542.479167 L 252.609375 542.46875 L 252.723958 542.46875 L 252.833333 542.479167 L 252.942708 542.5 L 253.046875 542.526042 L 253.151042 542.5625 L 253.25 542.609375 L 253.34375 542.666667 L 253.427083 542.723958 L 253.505208 542.796875 L 253.572917 542.869792 L 253.635417 542.947917 L 253.6875 543.036458 L 253.729167 543.125 L 253.755208 543.213542 L 253.776042 543.307292 L 253.786458 543.40625 L 253.78125 543.5 L 253.765625 543.59375 L 253.744792 543.6875 L 253.708333 543.78125 L 253.661458 543.864583 L 253.604167 543.947917 L 253.541667 544.026042 L 253.46875 544.098958 L 253.385417 544.161458 L 253.296875 544.21875 L 253.203125 544.270833 L 253.098958 544.3125 L 252.994792 544.34375 L 252.890625 544.369792 L 252.776042 544.380208 Z M 252.666667 544.385417 " transform="matrix(0.75,0,0,0.75,0,0)"/>
<path style="fill-rule:nonzero;fill:rgb(25.393501%,26.525399%,52.998298%);fill-opacity:1;stroke-width:1;stroke-linecap:butt;stroke-linejoin:miter;stroke:rgb(25.393501%,26.525399%,52.998298%);stroke-opacity:1;stroke-miterlimit:10;" d="M 339.53125 110.286458 L 334.052083 109.161458 L 311.380208 187.942708 L 318.145833 189.333333 Z M 339.53125 110.286458 " transform="matrix(0.75,0,0,0.75,0,0)"/>
<path style="fill-rule:nonzero;fill:rgb(25.393501%,26.525399%,52.998298%);fill-opacity:1;stroke-width:1;stroke-linecap:butt;stroke-linejoin:miter;stroke:rgb(25.393501%,26.525399%,52.998298%);stroke-opacity:1;stroke-miterlimit:10;" d="M 336.791667 112.135417 L 336.510417 112.125 L 336.234375 112.088542 L 335.958333 112.03125 L 335.697917 111.947917 L 335.442708 111.84375 L 335.203125 111.71875 L 334.979167 111.572917 L 334.776042 111.411458 L 334.588542 111.229167 L 334.427083 111.03125 L 334.286458 110.822917 L 334.166667 110.604167 L 334.078125 110.375 L 334.015625 110.140625 L 333.979167 109.901042 L 333.973958 109.661458 L 333.994792 109.421875 L 334.046875 109.1875 L 334.119792 108.953125 L 334.223958 108.729167 L 334.348958 108.515625 L 334.505208 108.3125 L 334.677083 108.125 L 334.875 107.953125 L 335.088542 107.796875 L 335.322917 107.661458 L 335.567708 107.546875 L 335.828125 107.453125 L 336.09375 107.380208 L 336.369792 107.333333 L 336.651042 107.3125 L 336.932292 107.3125 L 337.213542 107.333333 L 337.484375 107.380208 L 337.755208 107.453125 L 338.015625 107.546875 L 338.260417 107.661458 L 338.494792 107.796875 L 338.708333 107.953125 L 338.90625 108.125 L 339.078125 108.3125 L 339.229167 108.515625 L 339.359375 108.729167 L 339.463542 108.953125 L 339.536458 109.1875 L 339.588542 109.421875 L 339.609375 109.661458 L 339.598958 109.901042 L 339.567708 110.140625 L 339.505208 110.375 L 339.416667 110.604167 L 339.296875 110.822917 L 339.15625 111.03125 L 338.994792 111.229167 L 338.807292 111.411458 L 338.604167 111.572917 L 338.380208 111.71875 L 338.140625 111.84375 L 337.885417 111.947917 L 337.619792 112.03125 L 337.348958 112.088542 L 337.072917 112.125 Z M 336.791667 112.135417 " transform="matrix(0.75,0,0,0.75,0,0)"/>
<path style="fill-rule:nonzero;fill:rgb(25.393501%,26.525399%,52.998298%);fill-opacity:1;stroke-width:1;stroke-linecap:butt;stroke-linejoin:miter;stroke:rgb(25.393501%,26.525399%,52.998298%);stroke-opacity:1;stroke-miterlimit:10;" d="M 252.666667 545.84375 L 252.385417 545.833333 L 252.109375 545.796875 L 251.838542 545.734375 L 251.572917 545.65625 L 251.317708 545.552083 L 251.078125 545.421875 L 250.854167 545.276042 L 250.651042 545.114583 L 250.463542 544.932292 L 250.302083 544.739583 L 250.161458 544.53125 L 250.041667 544.3125 L 249.953125 544.083333 L 249.890625 543.848958 L 249.859375 543.609375 L 249.848958 543.369792 L 249.869792 543.130208 L 249.921875 542.890625 L 249.994792 542.661458 L 250.098958 542.4375 L 250.223958 542.21875 L 250.380208 542.020833 L 250.552083 541.828125 L 250.75 541.65625 L 250.963542 541.505208 L 251.197917 541.369792 L 251.442708 541.255208 L 251.703125 541.161458 L 251.973958 541.088542 L 252.244792 541.041667 L 252.526042 541.015625 L 252.807292 541.015625 L 253.088542 541.041667 L 253.359375 541.088542 L 253.630208 541.161458 L 253.890625 541.255208 L 254.135417 541.369792 L 254.369792 541.505208 L 254.583333 541.65625 L 254.78125 541.828125 L 254.953125 542.020833 L 255.109375 542.21875 L 255.234375 542.4375 L 255.338542 542.661458 L 255.411458 542.890625 L 255.463542 543.130208 L 255.484375 543.369792 L 255.473958 543.609375 L 255.442708 543.848958 L 255.380208 544.083333 L 255.291667 544.3125 L 255.171875 544.53125 L 255.03125 544.739583 L 254.869792 544.932292 L 254.682292 545.114583 L 254.479167 545.276042 L 254.255208 545.421875 L 254.015625 545.552083 L 253.760417 545.65625 L 253.494792 545.734375 L 253.223958 545.796875 L 252.947917 545.833333 Z M 252.666667 545.84375 " transform="matrix(0.75,0,0,0.75,0,0)"/>
<path style="fill-rule:nonzero;fill:rgb(16.3625%,47.113299%,55.814803%);fill-opacity:1;stroke-width:1;stroke-linecap:butt;stroke-linejoin:miter;stroke:rgb(16.3625%,47.113299%,55.814803%);stroke-opacity:1;stroke-miterlimit:10;" d="M 318.90625 190.072917 L 310.614583 187.203125 L 247.546875 318.510417 L 257.786458 322.0625 Z M 318.90625 190.072917 " transform="matrix(0.75,0,0,0.75,0,0)"/>
<path style="fill-rule:nonzero;fill:rgb(16.3625%,47.113299%,55.814803%);fill-opacity:1;stroke-width:1;stroke-linecap:butt;stroke-linejoin:miter;stroke:rgb(16.3625%,47.113299%,55.814803%);stroke-opacity:1;stroke-miterlimit:10;" d="M 314.760417 192.473958 L 314.317708 192.453125 L 313.875 192.395833 L 313.442708 192.302083 L 313.026042 192.171875 L 312.625 192.005208 L 312.244792 191.807292 L 311.885417 191.572917 L 311.5625 191.3125 L 311.265625 191.026042 L 311.005208 190.71875 L 310.78125 190.385417 L 310.598958 190.036458 L 310.458333 189.677083 L 310.359375 189.302083 L 310.302083 188.927083 L 310.291667 188.541667 L 310.322917 188.161458 L 310.401042 187.786458 L 310.520833 187.416667 L 310.6875 187.0625 L 310.890625 186.71875 L 311.130208 186.401042 L 311.40625 186.098958 L 311.71875 185.828125 L 312.0625 185.583333 L 312.432292 185.364583 L 312.822917 185.182292 L 313.234375 185.036458 L 313.65625 184.921875 L 314.09375 184.848958 L 314.541667 184.807292 L 314.984375 184.807292 L 315.427083 184.848958 L 315.864583 184.921875 L 316.291667 185.036458 L 316.703125 185.182292 L 317.09375 185.364583 L 317.463542 185.583333 L 317.802083 185.828125 L 318.114583 186.098958 L 318.395833 186.401042 L 318.635417 186.71875 L 318.838542 187.0625 L 319 187.416667 L 319.125 187.786458 L 319.197917 188.161458 L 319.234375 188.541667 L 319.223958 188.927083 L 319.166667 189.302083 L 319.067708 189.677083 L 318.927083 190.036458 L 318.744792 190.385417 L 318.520833 190.71875 L 318.260417 191.026042 L 317.963542 191.3125 L 317.635417 191.572917 L 317.28125 191.807292 L 316.901042 192.005208 L 316.5 192.171875 L 316.078125 192.302083 L 315.651042 192.395833 L 315.208333 192.453125 Z M 314.760417 192.473958 " transform="matrix(0.75,0,0,0.75,0,0)"/>
<path style="fill-rule:nonzero;fill:rgb(16.3625%,47.113299%,55.814803%);fill-opacity:1;stroke-width:1;stroke-linecap:butt;stroke-linejoin:miter;stroke:rgb(16.3625%,47.113299%,55.814803%);stroke-opacity:1;stroke-miterlimit:10;" d="M 252.666667 547.260417 L 252.21875 547.244792 L 251.78125 547.1875 L 251.348958 547.09375 L 250.927083 546.963542 L 250.526042 546.796875 L 250.145833 546.59375 L 249.791667 546.364583 L 249.463542 546.104167 L 249.171875 545.817708 L 248.911458 545.510417 L 248.6875 545.177083 L 248.505208 544.828125 L 248.359375 544.46875 L 248.260417 544.09375 L 248.208333 543.713542 L 248.197917 543.333333 L 248.229167 542.953125 L 248.307292 542.572917 L 248.427083 542.208333 L 248.588542 541.854167 L 248.791667 541.510417 L 249.036458 541.192708 L 249.3125 540.890625 L 249.625 540.619792 L 249.963542 540.375 L 250.333333 540.15625 L 250.723958 539.973958 L 251.135417 539.828125 L 251.5625 539.713542 L 252 539.635417 L 252.442708 539.598958 L 252.890625 539.598958 L 253.333333 539.635417 L 253.770833 539.713542 L 254.197917 539.828125 L 254.609375 539.973958 L 255 540.15625 L 255.369792 540.375 L 255.708333 540.619792 L 256.020833 540.890625 L 256.296875 541.192708 L 256.541667 541.510417 L 256.744792 541.854167 L 256.90625 542.208333 L 257.026042 542.572917 L 257.104167 542.953125 L 257.135417 543.333333 L 257.125 543.713542 L 257.072917 544.09375 L 256.973958 544.46875 L 256.828125 544.828125 L 256.645833 545.177083 L 256.421875 545.510417 L 256.161458 545.817708 L 255.869792 546.104167 L 255.541667 546.364583 L 255.1875 546.59375 L 254.807292 546.796875 L 254.40625 546.963542 L 253.984375 547.09375 L 253.552083 547.1875 L 253.114583 547.244792 Z M 252.666667 547.260417 " transform="matrix(0.75,0,0,0.75,0,0)"/>
<path style="fill-rule:nonzero;fill:rgb(26.700401%,0.4874%,32.941499%);fill-opacity:1;stroke-width:1;stroke-linecap:butt;stroke-linejoin:miter;stroke:rgb(26.700401%,0.4874%,32.941499%);stroke-opacity:1;stroke-miterlimit:10;" d="M 281.885417 101.729167 L 280.791667 100.609375 L 225.807292 139.114583 L 227.90625 141.270833 Z M 281.885417 101.729167 " transform="matrix(0.75,0,0,0.75,0,0)"/>
<path style="fill-rule:nonzero;fill:rgb(26.700401%,0.4874%,32.941499%);fill-opacity:1;stroke-width:1;stroke-linecap:butt;stroke-linejoin:miter;stroke:rgb(26.700401%,0.4874%,32.941499%);stroke-opacity:1;stroke-miterlimit:10;" d="M 281.338542 101.901042 L 281.25 101.895833 L 281.166667 101.885417 L 281.083333 101.869792 L 281.005208 101.84375 L 280.927083 101.8125 L 280.854167 101.770833 L 280.786458 101.729167 L 280.723958 101.677083 L 280.671875 101.625 L 280.619792 101.567708 L 280.578125 101.5 L 280.541667 101.4375 L 280.515625 101.364583 L 280.494792 101.296875 L 280.484375 101.223958 L 280.484375 101.151042 L 280.489583 101.078125 L 280.505208 101.005208 L 280.526042 100.9375 L 280.557292 100.869792 L 280.598958 100.802083 L 280.645833 100.739583 L 280.697917 100.682292 L 280.755208 100.630208 L 280.822917 100.583333 L 280.890625 100.546875 L 280.96875 100.510417 L 281.046875 100.479167 L 281.125 100.458333 L 281.208333 100.447917 L 281.296875 100.4375 L 281.380208 100.4375 L 281.546875 100.458333 L 281.630208 100.479167 L 281.708333 100.510417 L 281.854167 100.583333 L 281.916667 100.630208 L 281.979167 100.682292 L 282.03125 100.739583 L 282.078125 100.802083 L 282.114583 100.869792 L 282.145833 100.9375 L 282.166667 101.005208 L 282.182292 101.078125 L 282.1875 101.151042 L 282.1875 101.223958 L 282.177083 101.296875 L 282.15625 101.364583 L 282.130208 101.4375 L 282.09375 101.5 L 282.052083 101.567708 L 282.005208 101.625 L 281.947917 101.677083 L 281.885417 101.729167 L 281.817708 101.770833 L 281.744792 101.8125 L 281.666667 101.84375 L 281.588542 101.869792 L 281.505208 101.885417 L 281.421875 101.895833 Z M 281.338542 101.901042 " transform="matrix(0.75,0,0,0.75,0,0)"/>
<path style="fill-rule:nonzero;fill:rgb(26.700401%,0.4874%,32.941499%);fill-opacity:1;stroke-width:1;stroke-linecap:butt;stroke-linejoin:miter;stroke:rgb(26.700401%,0.4874%,32.941499%);stroke-opacity:1;stroke-miterlimit:10;" d="M 252.666667 544.161458 L 252.583333 544.15625 L 252.5 544.145833 L 252.333333 544.104167 L 252.260417 544.072917 L 252.1875 544.03125 L 252.119792 543.989583 L 252.057292 543.9375 L 252 543.885417 L 251.947917 543.822917 L 251.90625 543.760417 L 251.869792 543.697917 L 251.84375 543.625 L 251.828125 543.557292 L 251.817708 543.484375 L 251.8125 543.411458 L 251.817708 543.338542 L 251.833333 543.265625 L 251.859375 543.197917 L 251.890625 543.130208 L 251.927083 543.0625 L 251.973958 543 L 252.026042 542.942708 L 252.088542 542.890625 L 252.151042 542.84375 L 252.223958 542.802083 L 252.296875 542.770833 L 252.375 542.739583 L 252.458333 542.71875 L 252.541667 542.703125 L 252.625 542.697917 L 252.708333 542.697917 L 252.791667 542.703125 L 252.875 542.71875 L 252.958333 542.739583 L 253.036458 542.770833 L 253.109375 542.802083 L 253.182292 542.84375 L 253.244792 542.890625 L 253.307292 542.942708 L 253.359375 543 L 253.40625 543.0625 L 253.442708 543.130208 L 253.473958 543.197917 L 253.5 543.265625 L 253.515625 543.338542 L 253.520833 543.411458 L 253.515625 543.484375 L 253.505208 543.557292 L 253.489583 543.625 L 253.463542 543.697917 L 253.427083 543.760417 L 253.385417 543.822917 L 253.333333 543.885417 L 253.276042 543.9375 L 253.213542 543.989583 L 253.145833 544.03125 L 253.072917 544.072917 L 253 544.104167 L 252.833333 544.145833 L 252.75 544.15625 Z M 252.666667 544.161458 " transform="matrix(0.75,0,0,0.75,0,0)"/>
<path style="fill-rule:nonzero;fill:rgb(26.700401%,0.4874%,32.941499%);fill-opacity:1;stroke-width:1;stroke-linecap:butt;stroke-linejoin:miter;stroke:rgb(26.700401%,0.4874%,32.941499%);stroke-opacity:1;stroke-miterlimit:10;" d="M 263.21875 87.916667 L 261.739583 87.182292 L 225.4375 139.489583 L 228.276042 140.895833 Z M 263.21875 87.916667 " transform="matrix(0.75,0,0,0.75,0,0)"/>
<path style="fill-rule:nonzero;fill:rgb(26.700401%,0.4874%,32.941499%);fill-opacity:1;stroke-width:1;stroke-linecap:butt;stroke-linejoin:miter;stroke:rgb(26.700401%,0.4874%,32.941499%);stroke-opacity:1;stroke-miterlimit:10;" d="M 262.479167 88.28125 L 262.395833 88.276042 L 262.3125 88.265625 L 262.229167 88.25 L 262.145833 88.223958 L 262.072917 88.192708 L 262 88.15625 L 261.932292 88.109375 L 261.869792 88.0625 L 261.8125 88.005208 L 261.760417 87.947917 L 261.71875 87.885417 L 261.65625 87.75 L 261.640625 87.677083 L 261.630208 87.604167 L 261.625 87.53125 L 261.645833 87.385417 L 261.671875 87.317708 L 261.703125 87.25 L 261.739583 87.182292 L 261.786458 87.125 L 261.838542 87.067708 L 261.901042 87.015625 L 261.963542 86.96875 L 262.036458 86.927083 L 262.109375 86.890625 L 262.1875 86.864583 L 262.270833 86.84375 L 262.354167 86.828125 L 262.4375 86.817708 L 262.520833 86.817708 L 262.604167 86.828125 L 262.692708 86.84375 L 262.770833 86.864583 L 262.848958 86.890625 L 262.927083 86.927083 L 262.994792 86.96875 L 263.0625 87.015625 L 263.119792 87.067708 L 263.171875 87.125 L 263.21875 87.182292 L 263.255208 87.25 L 263.286458 87.317708 L 263.3125 87.385417 L 263.328125 87.458333 L 263.333333 87.53125 L 263.328125 87.604167 L 263.317708 87.677083 L 263.302083 87.75 L 263.276042 87.817708 L 263.239583 87.885417 L 263.197917 87.947917 L 263.145833 88.005208 L 263.088542 88.0625 L 263.026042 88.109375 L 262.958333 88.15625 L 262.885417 88.192708 L 262.8125 88.223958 L 262.729167 88.25 L 262.651042 88.265625 L 262.5625 88.276042 Z M 262.479167 88.28125 " transform="matrix(0.75,0,0,0.75,0,0)"/>
<path style="fill-rule:nonzero;fill:rgb(26.700401%,0.4874%,32.941499%);fill-opacity:1;stroke-width:1;stroke-linecap:butt;stroke-linejoin:miter;stroke:rgb(26.700401%,0.4874%,32.941499%);stroke-opacity:1;stroke-miterlimit:10;" d="M 252.666667 544.161458 L 252.583333 544.15625 L 252.5 544.145833 L 252.333333 544.104167 L 252.260417 544.072917 L 252.1875 544.03125 L 252.119792 543.989583 L 252.057292 543.9375 L 252 543.885417 L 251.947917 543.822917 L 251.90625 543.760417 L 251.869792 543.697917 L 251.84375 543.625 L 251.828125 543.557292 L 251.817708 543.484375 L 251.8125 543.411458 L 251.817708 543.338542 L 251.833333 543.265625 L 251.859375 543.197917 L 251.890625 543.130208 L 251.927083 543.0625 L 251.973958 543 L 252.026042 542.942708 L 252.088542 542.890625 L 252.151042 542.84375 L 252.223958 542.802083 L 252.296875 542.770833 L 252.375 542.739583 L 252.458333 542.71875 L 252.541667 542.703125 L 252.625 542.697917 L 252.708333 542.697917 L 252.791667 542.703125 L 252.875 542.71875 L 252.958333 542.739583 L 253.036458 542.770833 L 253.109375 542.802083 L 253.182292 542.84375 L 253.244792 542.890625 L 253.307292 542.942708 L 253.359375 543 L 253.40625 543.0625 L 253.442708 543.130208 L 253.473958 543.197917 L 253.5 543.265625 L 253.515625 543.338542 L 253.520833 543.411458 L 253.515625 543.484375 L 253.505208 543.557292 L 253.489583 543.625 L 253.463542 543.697917 L 253.427083 543.760417 L 253.385417 543.822917 L 253.333333 543.885417 L 253.276042 543.9375 L 253.213542 543.989583 L 253.145833 544.03125 L 253.072917 544.072917 L 253 544.104167 L 252.833333 544.145833 L 252.75 544.15625 Z M 252.666667 544.161458 " transform="matrix(0.75,0,0,0.75,0,0)"/>
<path style="fill-rule:nonzero;fill:rgb(26.700401%,0.4874%,32.941499%);fill-opacity:1;stroke-width:1;stroke-linecap:butt;stroke-linejoin:miter;stroke:rgb(26.700401%,0.4874%,32.941499%);stroke-opacity:1;stroke-miterlimit:10;" d="M 240.166667 80.411458 L 238.484375 80.151042 L 225.244792 139.947917 L 228.46875 140.4375 Z M 240.166667 80.411458 " transform="matrix(0.75,0,0,0.75,0,0)"/>
<path style="fill-rule:nonzero;fill:rgb(26.700401%,0.4874%,32.941499%);fill-opacity:1;stroke-width:1;stroke-linecap:butt;stroke-linejoin:miter;stroke:rgb(26.700401%,0.4874%,32.941499%);stroke-opacity:1;stroke-miterlimit:10;" d="M 239.328125 81.015625 L 239.239583 81.010417 L 239.15625 81 L 239.072917 80.979167 L 238.994792 80.958333 L 238.916667 80.921875 L 238.84375 80.885417 L 238.776042 80.84375 L 238.713542 80.791667 L 238.65625 80.739583 L 238.609375 80.677083 L 238.567708 80.614583 L 238.53125 80.546875 L 238.505208 80.479167 L 238.484375 80.411458 L 238.473958 80.338542 L 238.473958 80.265625 L 238.479167 80.192708 L 238.494792 80.119792 L 238.515625 80.046875 L 238.546875 79.979167 L 238.630208 79.854167 L 238.6875 79.796875 L 238.744792 79.744792 L 238.8125 79.697917 L 238.880208 79.65625 L 238.953125 79.625 L 239.03125 79.59375 L 239.114583 79.572917 L 239.197917 79.557292 L 239.28125 79.552083 L 239.369792 79.552083 L 239.453125 79.557292 L 239.536458 79.572917 L 239.619792 79.59375 L 239.697917 79.625 L 239.770833 79.65625 L 239.838542 79.697917 L 239.90625 79.744792 L 239.963542 79.796875 L 240.020833 79.854167 L 240.104167 79.979167 L 240.135417 80.046875 L 240.15625 80.119792 L 240.171875 80.192708 L 240.177083 80.265625 L 240.177083 80.338542 L 240.166667 80.411458 L 240.145833 80.479167 L 240.119792 80.546875 L 240.083333 80.614583 L 240.041667 80.677083 L 239.994792 80.739583 L 239.9375 80.791667 L 239.875 80.84375 L 239.807292 80.885417 L 239.734375 80.921875 L 239.65625 80.958333 L 239.578125 80.979167 L 239.494792 81 L 239.411458 81.010417 Z M 239.328125 81.015625 " transform="matrix(0.75,0,0,0.75,0,0)"/>
<path style="fill-rule:nonzero;fill:rgb(26.700401%,0.4874%,32.941499%);fill-opacity:1;stroke-width:1;stroke-linecap:butt;stroke-linejoin:miter;stroke:rgb(26.700401%,0.4874%,32.941499%);stroke-opacity:1;stroke-miterlimit:10;" d="M 252.666667 544.161458 L 252.583333 544.15625 L 252.5 544.145833 L 252.333333 544.104167 L 252.260417 544.072917 L 252.1875 544.03125 L 252.119792 543.989583 L 252.057292 543.9375 L 252 543.885417 L 251.947917 543.822917 L 251.90625 543.760417 L 251.869792 543.697917 L 251.84375 543.625 L 251.828125 543.557292 L 251.817708 543.484375 L 251.8125 543.411458 L 251.817708 543.338542 L 251.833333 543.265625 L 251.859375 543.197917 L 251.890625 543.130208 L 251.927083 543.0625 L 251.973958 543 L 252.026042 542.942708 L 252.088542 542.890625 L 252.151042 542.84375 L 252.223958 542.802083 L 252.296875 542.770833 L 252.375 542.739583 L 252.458333 542.71875 L 252.541667 542.703125 L 252.625 542.697917 L 252.708333 542.697917 L 252.791667 542.703125 L 252.875 542.71875 L 252.958333 542.739583 L 253.036458 542.770833 L 253.109375 542.802083 L 253.182292 542.84375 L 253.244792 542.890625 L 253.307292 542.942708 L 253.359375 543 L 253.40625 543.0625 L 253.442708 543.130208 L 253.473958 543.197917 L 253.5 543.265625 L 253.515625 543.338542 L 253.520833 543.411458 L 253.515625 543.484375 L 253.505208 543.557292 L 253.489583 543.625 L 253.463542 543.697917 L 253.427083 543.760417 L 253.385417 543.822917 L 253.333333 543.885417 L 253.276042 543.9375 L 253.213542 543.989583 L 253.145833 544.03125 L 253.072917 544.072917 L 253 544.104167 L 252.833333 544.145833 L 252.75 544.15625 Z M 252.666667 544.161458 " transform="matrix(0.75,0,0,0.75,0,0)"/>
<path style="fill-rule:nonzero;fill:rgb(26.700401%,0.4874%,32.941499%);fill-opacity:1;stroke-width:1;stroke-linecap:butt;stroke-linejoin:miter;stroke:rgb(26.700401%,0.4874%,32.941499%);stroke-opacity:1;stroke-miterlimit:10;" d="M 215.510417 80.114583 L 213.828125 80.364583 L 225.239583 140.432292 L 228.46875 139.953125 Z M 215.510417 80.114583 " transform="matrix(0.75,0,0,0.75,0,0)"/>
<path style="fill-rule:nonzero;fill:rgb(26.700401%,0.4874%,32.941499%);fill-opacity:1;stroke-width:1;stroke-linecap:butt;stroke-linejoin:miter;stroke:rgb(26.700401%,0.4874%,32.941499%);stroke-opacity:1;stroke-miterlimit:10;" d="M 214.666667 80.96875 L 214.583333 80.96875 L 214.5 80.958333 L 214.416667 80.9375 L 214.338542 80.911458 L 214.260417 80.880208 L 214.1875 80.84375 L 214.119792 80.802083 L 214.057292 80.75 L 214 80.697917 L 213.90625 80.572917 L 213.84375 80.4375 L 213.828125 80.364583 L 213.817708 80.291667 L 213.8125 80.21875 L 213.822917 80.151042 L 213.833333 80.078125 L 213.859375 80.005208 L 213.890625 79.9375 L 213.927083 79.875 L 213.973958 79.8125 L 214.026042 79.755208 L 214.088542 79.703125 L 214.151042 79.65625 L 214.223958 79.614583 L 214.296875 79.578125 L 214.375 79.552083 L 214.458333 79.53125 L 214.541667 79.515625 L 214.625 79.510417 L 214.708333 79.510417 L 214.796875 79.515625 L 214.880208 79.53125 L 214.958333 79.552083 L 215.036458 79.578125 L 215.114583 79.614583 L 215.182292 79.65625 L 215.25 79.703125 L 215.307292 79.755208 L 215.359375 79.8125 L 215.40625 79.875 L 215.447917 79.9375 L 215.473958 80.005208 L 215.5 80.078125 L 215.515625 80.151042 L 215.520833 80.21875 L 215.520833 80.291667 L 215.510417 80.364583 L 215.489583 80.4375 L 215.463542 80.505208 L 215.427083 80.572917 L 215.385417 80.635417 L 215.333333 80.697917 L 215.276042 80.75 L 215.213542 80.802083 L 215.145833 80.84375 L 215.078125 80.880208 L 215 80.911458 L 214.916667 80.9375 L 214.838542 80.958333 L 214.75 80.96875 Z M 214.666667 80.96875 " transform="matrix(0.75,0,0,0.75,0,0)"/>
<path style="fill-rule:nonzero;fill:rgb(26.700401%,0.4874%,32.941499%);fill-opacity:1;stroke-width:1;stroke-linecap:butt;stroke-linejoin:miter;stroke:rgb(26.700401%,0.4874%,32.941499%);stroke-opacity:1;stroke-miterlimit:10;" d="M 252.666667 544.161458 L 252.583333 544.15625 L 252.5 544.145833 L 252.333333 544.104167 L 252.260417 544.072917 L 252.1875 544.03125 L 252.119792 543.989583 L 252.057292 543.9375 L 252 543.885417 L 251.947917 543.822917 L 251.90625 543.760417 L 251.869792 543.697917 L 251.84375 543.625 L 251.828125 543.557292 L 251.817708 543.484375 L 251.8125 543.411458 L 251.817708 543.338542 L 251.833333 543.265625 L 251.859375 543.197917 L 251.890625 543.130208 L 251.927083 543.0625 L 251.973958 543 L 252.026042 542.942708 L 252.088542 542.890625 L 252.151042 542.84375 L 252.223958 542.802083 L 252.296875 542.770833 L 252.375 542.739583 L 252.458333 542.71875 L 252.541667 542.703125 L 252.625 542.697917 L 252.708333 542.697917 L 252.791667 542.703125 L 252.875 542.71875 L 252.958333 542.739583 L 253.036458 542.770833 L 253.109375 542.802083 L 253.182292 542.84375 L 253.244792 542.890625 L 253.307292 542.942708 L 253.359375 543 L 253.40625 543.0625 L 253.442708 543.130208 L 253.473958 543.197917 L 253.5 543.265625 L 253.515625 543.338542 L 253.520833 543.411458 L 253.515625 543.484375 L 253.505208 543.557292 L 253.489583 543.625 L 253.463542 543.697917 L 253.427083 543.760417 L 253.385417 543.822917 L 253.333333 543.885417 L 253.276042 543.9375 L 253.213542 543.989583 L 253.145833 544.03125 L 253.072917 544.072917 L 253 544.104167 L 252.833333 544.145833 L 252.75 544.15625 Z M 252.666667 544.161458 " transform="matrix(0.75,0,0,0.75,0,0)"/>
<path style="fill-rule:nonzero;fill:rgb(26.700401%,0.4874%,32.941499%);fill-opacity:1;stroke-width:1;stroke-linecap:butt;stroke-linejoin:miter;stroke:rgb(26.700401%,0.4874%,32.941499%);stroke-opacity:1;stroke-miterlimit:10;" d="M 192.21875 87.0625 L 190.739583 87.791667 L 225.4375 140.890625 L 228.276042 139.494792 Z M 192.21875 87.0625 " transform="matrix(0.75,0,0,0.75,0,0)"/>
<path style="fill-rule:nonzero;fill:rgb(26.700401%,0.4874%,32.941499%);fill-opacity:1;stroke-width:1;stroke-linecap:butt;stroke-linejoin:miter;stroke:rgb(26.700401%,0.4874%,32.941499%);stroke-opacity:1;stroke-miterlimit:10;" d="M 191.479167 88.161458 L 191.395833 88.15625 L 191.3125 88.145833 L 191.145833 88.104167 L 191.072917 88.072917 L 191 88.03125 L 190.932292 87.989583 L 190.869792 87.9375 L 190.8125 87.885417 L 190.760417 87.822917 L 190.71875 87.760417 L 190.6875 87.697917 L 190.65625 87.625 L 190.640625 87.557292 L 190.630208 87.484375 L 190.625 87.411458 L 190.645833 87.265625 L 190.671875 87.197917 L 190.703125 87.125 L 190.739583 87.0625 L 190.786458 87 L 190.838542 86.942708 L 190.901042 86.890625 L 190.963542 86.84375 L 191.036458 86.802083 L 191.109375 86.770833 L 191.1875 86.739583 L 191.270833 86.71875 L 191.354167 86.703125 L 191.4375 86.697917 L 191.520833 86.697917 L 191.609375 86.703125 L 191.692708 86.71875 L 191.770833 86.739583 L 191.927083 86.802083 L 191.994792 86.84375 L 192.0625 86.890625 L 192.119792 86.942708 L 192.171875 87 L 192.21875 87.0625 L 192.255208 87.125 L 192.286458 87.197917 L 192.3125 87.265625 L 192.328125 87.338542 L 192.333333 87.411458 L 192.328125 87.484375 L 192.317708 87.557292 L 192.302083 87.625 L 192.276042 87.697917 L 192.239583 87.760417 L 192.197917 87.822917 L 192.145833 87.885417 L 192.088542 87.9375 L 192.026042 87.989583 L 191.958333 88.03125 L 191.885417 88.072917 L 191.8125 88.104167 L 191.729167 88.125 L 191.651042 88.145833 L 191.5625 88.15625 Z M 191.479167 88.161458 " transform="matrix(0.75,0,0,0.75,0,0)"/>
<path style="fill-rule:nonzero;fill:rgb(26.700401%,0.4874%,32.941499%);fill-opacity:1;stroke-width:1;stroke-linecap:butt;stroke-linejoin:miter;stroke:rgb(26.700401%,0.4874%,32.941499%);stroke-opacity:1;stroke-miterlimit:10;" d="M 252.666667 544.161458 L 252.583333 544.15625 L 252.5 544.145833 L 252.333333 544.104167 L 252.260417 544.072917 L 252.1875 544.03125 L 252.119792 543.989583 L 252.057292 543.9375 L 252 543.885417 L 251.947917 543.822917 L 251.90625 543.760417 L 251.869792 543.697917 L 251.84375 543.625 L 251.828125 543.557292 L 251.817708 543.484375 L 251.8125 543.411458 L 251.817708 543.338542 L 251.833333 543.265625 L 251.859375 543.197917 L 251.890625 543.130208 L 251.927083 543.0625 L 251.973958 543 L 252.026042 542.942708 L 252.088542 542.890625 L 252.151042 542.84375 L 252.223958 542.802083 L 252.296875 542.770833 L 252.375 542.739583 L 252.458333 542.71875 L 252.541667 542.703125 L 252.625 542.697917 L 252.708333 542.697917 L 252.791667 542.703125 L 252.875 542.71875 L 252.958333 542.739583 L 253.036458 542.770833 L 253.109375 542.802083 L 253.182292 542.84375 L 253.244792 542.890625 L 253.307292 542.942708 L 253.359375 543 L 253.40625 543.0625 L 253.442708 543.130208 L 253.473958 543.197917 L 253.5 543.265625 L 253.515625 543.338542 L 253.520833 543.411458 L 253.515625 543.484375 L 253.505208 543.557292 L 253.489583 543.625 L 253.463542 543.697917 L 253.427083 543.760417 L 253.385417 543.822917 L 253.333333 543.885417 L 253.276042 543.9375 L 253.213542 543.989583 L 253.145833 544.03125 L 253.072917 544.072917 L 253 544.104167 L 252.833333 544.145833 L 252.75 544.15625 Z M 252.666667 544.161458 " transform="matrix(0.75,0,0,0.75,0,0)"/>
<path style="fill-rule:nonzero;fill:rgb(26.700401%,0.4874%,32.941499%);fill-opacity:1;stroke-width:1;stroke-linecap:butt;stroke-linejoin:miter;stroke:rgb(26.700401%,0.4874%,32.941499%);stroke-opacity:1;stroke-miterlimit:10;" d="M 173.109375 100.421875 L 172.010417 101.541667 L 225.802083 141.265625 L 227.911458 139.119792 Z M 173.109375 100.421875 " transform="matrix(0.75,0,0,0.75,0,0)"/>
<path style="fill-rule:nonzero;fill:rgb(26.700401%,0.4874%,32.941499%);fill-opacity:1;stroke-width:1;stroke-linecap:butt;stroke-linejoin:miter;stroke:rgb(26.700401%,0.4874%,32.941499%);stroke-opacity:1;stroke-miterlimit:10;" d="M 172.557292 101.713542 L 172.473958 101.708333 L 172.390625 101.697917 L 172.307292 101.682292 L 172.229167 101.65625 L 172.151042 101.625 L 172.078125 101.583333 L 172.010417 101.541667 L 171.947917 101.489583 L 171.890625 101.4375 L 171.84375 101.380208 L 171.796875 101.3125 L 171.765625 101.25 L 171.739583 101.177083 L 171.71875 101.109375 L 171.708333 101.036458 L 171.703125 100.963542 L 171.713542 100.890625 L 171.729167 100.817708 L 171.75 100.75 L 171.78125 100.682292 L 171.817708 100.614583 L 171.864583 100.552083 L 171.916667 100.5 L 171.979167 100.442708 L 172.041667 100.395833 L 172.1875 100.322917 L 172.265625 100.291667 L 172.348958 100.270833 L 172.515625 100.25 L 172.598958 100.25 L 172.6875 100.260417 L 172.770833 100.270833 L 172.848958 100.291667 L 172.927083 100.322917 L 173.005208 100.359375 L 173.072917 100.395833 L 173.140625 100.442708 L 173.25 100.552083 L 173.296875 100.614583 L 173.338542 100.682292 L 173.369792 100.75 L 173.390625 100.817708 L 173.40625 100.890625 L 173.411458 100.963542 L 173.411458 101.036458 L 173.401042 101.109375 L 173.380208 101.177083 L 173.354167 101.25 L 173.317708 101.3125 L 173.276042 101.380208 L 173.223958 101.4375 L 173.171875 101.489583 L 173.109375 101.541667 L 173.041667 101.583333 L 172.96875 101.625 L 172.890625 101.65625 L 172.8125 101.682292 L 172.729167 101.697917 L 172.645833 101.708333 Z M 172.557292 101.713542 " transform="matrix(0.75,0,0,0.75,0,0)"/>
<path style="fill-rule:nonzero;fill:rgb(26.700401%,0.4874%,32.941499%);fill-opacity:1;stroke-width:1;stroke-linecap:butt;stroke-linejoin:miter;stroke:rgb(26.700401%,0.4874%,32.941499%);stroke-opacity:1;stroke-miterlimit:10;" d="M 252.666667 544.161458 L 252.583333 544.15625 L 252.5 544.145833 L 252.333333 544.104167 L 252.260417 544.072917 L 252.1875 544.03125 L 252.119792 543.989583 L 252.057292 543.9375 L 252 543.885417 L 251.947917 543.822917 L 251.90625 543.760417 L 251.869792 543.697917 L 251.84375 543.625 L 251.828125 543.557292 L 251.817708 543.484375 L 251.8125 543.411458 L 251.817708 543.338542 L 251.833333 543.265625 L 251.859375 543.197917 L 251.890625 543.130208 L 251.927083 543.0625 L 251.973958 543 L 252.026042 542.942708 L 252.088542 542.890625 L 252.151042 542.84375 L 252.223958 542.802083 L 252.296875 542.770833 L 252.375 542.739583 L 252.458333 542.71875 L 252.541667 542.703125 L 252.625 542.697917 L 252.708333 542.697917 L 252.791667 542.703125 L 252.875 542.71875 L 252.958333 542.739583 L 253.036458 542.770833 L 253.109375 542.802083 L 253.182292 542.84375 L 253.244792 542.890625 L 253.307292 542.942708 L 253.359375 543 L 253.40625 543.0625 L 253.442708 543.130208 L 253.473958 543.197917 L 253.5 543.265625 L 253.515625 543.338542 L 253.520833 543.411458 L 253.515625 543.484375 L 253.505208 543.557292 L 253.489583 543.625 L 253.463542 543.697917 L 253.427083 543.760417 L 253.385417 543.822917 L 253.333333 543.885417 L 253.276042 543.9375 L 253.213542 543.989583 L 253.145833 544.03125 L 253.072917 544.072917 L 253 544.104167 L 252.833333 544.145833 L 252.75 544.15625 Z M 252.666667 544.161458 " transform="matrix(0.75,0,0,0.75,0,0)"/>
<path style="fill-rule:nonzero;fill:rgb(25.393501%,26.525399%,52.998298%);fill-opacity:1;stroke-width:1;stroke-linecap:butt;stroke-linejoin:miter;stroke:rgb(25.393501%,26.525399%,52.998298%);stroke-opacity:1;stroke-miterlimit:10;" d="M 229.671875 140.197917 L 224.036458 140.1875 L 223.1875 221.328125 L 230.145833 221.34375 Z M 229.671875 140.197917 " transform="matrix(0.75,0,0,0.75,0,0)"/>
<path style="fill-rule:nonzero;fill:rgb(25.393501%,26.525399%,52.998298%);fill-opacity:1;stroke-width:1;stroke-linecap:butt;stroke-linejoin:miter;stroke:rgb(25.393501%,26.525399%,52.998298%);stroke-opacity:1;stroke-miterlimit:10;" d="M 226.854167 142.609375 L 226.578125 142.59375 L 226.296875 142.5625 L 226.026042 142.5 L 225.760417 142.416667 L 225.510417 142.3125 L 225.270833 142.1875 L 225.046875 142.041667 L 224.838542 141.880208 L 224.651042 141.697917 L 224.489583 141.505208 L 224.348958 141.296875 L 224.234375 141.072917 L 224.145833 140.848958 L 224.083333 140.614583 L 224.046875 140.375 L 224.041667 140.135417 L 224.0625 139.890625 L 224.109375 139.65625 L 224.1875 139.421875 L 224.286458 139.197917 L 224.416667 138.984375 L 224.567708 138.78125 L 224.744792 138.59375 L 224.9375 138.421875 L 225.15625 138.265625 L 225.385417 138.130208 L 225.635417 138.015625 L 225.890625 137.921875 L 226.161458 137.854167 L 226.4375 137.807292 L 226.713542 137.78125 L 226.994792 137.78125 L 227.276042 137.807292 L 227.552083 137.854167 L 227.817708 137.921875 L 228.078125 138.015625 L 228.322917 138.130208 L 228.557292 138.265625 L 228.770833 138.421875 L 228.96875 138.59375 L 229.145833 138.78125 L 229.296875 138.984375 L 229.421875 139.197917 L 229.526042 139.421875 L 229.604167 139.65625 L 229.651042 139.890625 L 229.671875 140.135417 L 229.666667 140.375 L 229.630208 140.614583 L 229.567708 140.848958 L 229.479167 141.072917 L 229.364583 141.296875 L 229.223958 141.505208 L 229.057292 141.697917 L 228.875 141.880208 L 228.666667 142.041667 L 228.442708 142.1875 L 228.203125 142.3125 L 227.953125 142.416667 L 227.6875 142.5 L 227.416667 142.5625 L 227.135417 142.59375 Z M 226.854167 142.609375 " transform="matrix(0.75,0,0,0.75,0,0)"/>
<path style="fill-rule:nonzero;fill:rgb(25.393501%,26.525399%,52.998298%);fill-opacity:1;stroke-width:1;stroke-linecap:butt;stroke-linejoin:miter;stroke:rgb(25.393501%,26.525399%,52.998298%);stroke-opacity:1;stroke-miterlimit:10;" d="M 252.666667 545.84375 L 252.385417 545.833333 L 252.109375 545.796875 L 251.838542 545.734375 L 251.572917 545.65625 L 251.317708 545.552083 L 251.078125 545.421875 L 250.854167 545.276042 L 250.651042 545.114583 L 250.463542 544.932292 L 250.302083 544.739583 L 250.161458 544.53125 L 250.041667 544.3125 L 249.953125 544.083333 L 249.890625 543.848958 L 249.859375 543.609375 L 249.848958 543.369792 L 249.869792 543.130208 L 249.921875 542.890625 L 249.994792 542.661458 L 250.098958 542.4375 L 250.223958 542.21875 L 250.380208 542.020833 L 250.552083 541.828125 L 250.75 541.65625 L 250.963542 541.505208 L 251.197917 541.369792 L 251.442708 541.255208 L 251.703125 541.161458 L 251.973958 541.088542 L 252.244792 541.041667 L 252.526042 541.015625 L 252.807292 541.015625 L 253.088542 541.041667 L 253.359375 541.088542 L 253.630208 541.161458 L 253.890625 541.255208 L 254.135417 541.369792 L 254.369792 541.505208 L 254.583333 541.65625 L 254.78125 541.828125 L 254.953125 542.020833 L 255.109375 542.21875 L 255.234375 542.4375 L 255.338542 542.661458 L 255.411458 542.890625 L 255.463542 543.130208 L 255.484375 543.369792 L 255.473958 543.609375 L 255.442708 543.848958 L 255.380208 544.083333 L 255.291667 544.3125 L 255.171875 544.53125 L 255.03125 544.739583 L 254.869792 544.932292 L 254.682292 545.114583 L 254.479167 545.276042 L 254.255208 545.421875 L 254.015625 545.552083 L 253.760417 545.65625 L 253.494792 545.734375 L 253.223958 545.796875 L 252.947917 545.833333 Z M 252.666667 545.84375 " transform="matrix(0.75,0,0,0.75,0,0)"/>
<path style="fill-rule:nonzero;fill:rgb(26.700401%,0.4874%,32.941499%);fill-opacity:1;stroke-width:1;stroke-linecap:butt;stroke-linejoin:miter;stroke:rgb(26.700401%,0.4874%,32.941499%);stroke-opacity:1;stroke-miterlimit:10;" d="M 147.786458 99.130208 L 145.208333 99.848958 L 166.567708 157.890625 L 170.255208 156.859375 Z M 147.786458 99.130208 " transform="matrix(0.75,0,0,0.75,0,0)"/>
<path style="fill-rule:nonzero;fill:rgb(26.700401%,0.4874%,32.941499%);fill-opacity:1;stroke-width:1;stroke-linecap:butt;stroke-linejoin:miter;stroke:rgb(26.700401%,0.4874%,32.941499%);stroke-opacity:1;stroke-miterlimit:10;" d="M 146.5 100.651042 L 146.364583 100.645833 L 146.229167 100.625 L 146.098958 100.598958 L 145.973958 100.557292 L 145.848958 100.510417 L 145.734375 100.447917 L 145.625 100.380208 L 145.526042 100.302083 L 145.4375 100.213542 L 145.359375 100.119792 L 145.291667 100.020833 L 145.239583 99.911458 L 145.192708 99.802083 L 145.166667 99.692708 L 145.145833 99.578125 L 145.145833 99.458333 L 145.15625 99.34375 L 145.177083 99.229167 L 145.213542 99.119792 L 145.265625 99.010417 L 145.322917 98.90625 L 145.401042 98.8125 L 145.484375 98.71875 L 145.578125 98.640625 L 145.682292 98.5625 L 145.791667 98.5 L 145.911458 98.442708 L 146.036458 98.395833 L 146.161458 98.364583 L 146.296875 98.338542 L 146.432292 98.328125 L 146.567708 98.328125 L 146.697917 98.338542 L 146.833333 98.364583 L 146.963542 98.395833 L 147.088542 98.442708 L 147.203125 98.5 L 147.317708 98.5625 L 147.421875 98.640625 L 147.515625 98.71875 L 147.598958 98.8125 L 147.671875 98.90625 L 147.734375 99.010417 L 147.78125 99.119792 L 147.817708 99.229167 L 147.84375 99.34375 L 147.854167 99.458333 L 147.848958 99.578125 L 147.833333 99.692708 L 147.802083 99.802083 L 147.760417 99.911458 L 147.703125 100.020833 L 147.635417 100.119792 L 147.557292 100.213542 L 147.46875 100.302083 L 147.369792 100.380208 L 147.260417 100.447917 L 147.145833 100.510417 L 147.026042 100.557292 L 146.895833 100.598958 L 146.765625 100.625 L 146.635417 100.645833 Z M 146.5 100.651042 " transform="matrix(0.75,0,0,0.75,0,0)"/>
<path style="fill-rule:nonzero;fill:rgb(26.700401%,0.4874%,32.941499%);fill-opacity:1;stroke-width:1;stroke-linecap:butt;stroke-linejoin:miter;stroke:rgb(26.700401%,0.4874%,32.941499%);stroke-opacity:1;stroke-miterlimit:10;" d="M 252.666667 544.588542 L 252.53125 544.583333 L 252.395833 544.567708 L 252.265625 544.536458 L 252.140625 544.5 L 252.020833 544.447917 L 251.901042 544.385417 L 251.796875 544.317708 L 251.697917 544.239583 L 251.609375 544.151042 L 251.53125 544.057292 L 251.463542 543.958333 L 251.40625 543.854167 L 251.364583 543.744792 L 251.333333 543.630208 L 251.317708 543.515625 L 251.3125 543.401042 L 251.322917 543.286458 L 251.34375 543.171875 L 251.380208 543.057292 L 251.432292 542.953125 L 251.494792 542.848958 L 251.567708 542.75 L 251.651042 542.661458 L 251.744792 542.578125 L 251.848958 542.505208 L 251.958333 542.4375 L 252.078125 542.380208 L 252.203125 542.338542 L 252.333333 542.302083 L 252.463542 542.28125 L 252.598958 542.270833 L 252.734375 542.270833 L 252.869792 542.28125 L 253 542.302083 L 253.130208 542.338542 L 253.255208 542.380208 L 253.375 542.4375 L 253.484375 542.505208 L 253.588542 542.578125 L 253.682292 542.661458 L 253.765625 542.75 L 253.838542 542.848958 L 253.901042 542.953125 L 253.953125 543.057292 L 253.989583 543.171875 L 254.010417 543.286458 L 254.020833 543.401042 L 254.015625 543.515625 L 254 543.630208 L 253.96875 543.744792 L 253.927083 543.854167 L 253.869792 543.958333 L 253.802083 544.057292 L 253.723958 544.151042 L 253.635417 544.239583 L 253.536458 544.317708 L 253.432292 544.385417 L 253.3125 544.447917 L 253.192708 544.5 L 253.067708 544.536458 L 252.9375 544.567708 L 252.802083 544.583333 Z M 252.666667 544.588542 " transform="matrix(0.75,0,0,0.75,0,0)"/>
<path style="fill-rule:nonzero;fill:rgb(26.700401%,0.4874%,32.941499%);fill-opacity:1;stroke-width:1;stroke-linecap:butt;stroke-linejoin:miter;stroke:rgb(26.700401%,0.4874%,32.941499%);stroke-opacity:1;stroke-miterlimit:10;" d="M 125.791667 108.6875 L 123.65625 110.119792 L 166.885417 158.395833 L 169.942708 156.354167 Z M 125.791667 108.6875 " transform="matrix(0.75,0,0,0.75,0,0)"/>
<path style="fill-rule:nonzero;fill:rgb(26.700401%,0.4874%,32.941499%);fill-opacity:1;stroke-width:1;stroke-linecap:butt;stroke-linejoin:miter;stroke:rgb(26.700401%,0.4874%,32.941499%);stroke-opacity:1;stroke-miterlimit:10;" d="M 124.723958 110.567708 L 124.588542 110.557292 L 124.453125 110.541667 L 124.322917 110.515625 L 124.197917 110.473958 L 124.072917 110.421875 L 123.958333 110.364583 L 123.848958 110.291667 L 123.75 110.213542 L 123.661458 110.130208 L 123.583333 110.036458 L 123.515625 109.932292 L 123.463542 109.828125 L 123.416667 109.71875 L 123.390625 109.604167 L 123.369792 109.489583 L 123.369792 109.375 L 123.380208 109.260417 L 123.401042 109.145833 L 123.4375 109.036458 L 123.489583 108.927083 L 123.546875 108.822917 L 123.619792 108.729167 L 123.708333 108.635417 L 123.802083 108.552083 L 123.90625 108.479167 L 124.015625 108.411458 L 124.135417 108.359375 L 124.260417 108.3125 L 124.385417 108.28125 L 124.520833 108.255208 L 124.65625 108.244792 L 124.791667 108.244792 L 124.921875 108.255208 L 125.057292 108.28125 L 125.1875 108.3125 L 125.307292 108.359375 L 125.427083 108.411458 L 125.541667 108.479167 L 125.645833 108.552083 L 125.739583 108.635417 L 125.822917 108.729167 L 125.895833 108.822917 L 125.958333 108.927083 L 126.005208 109.036458 L 126.041667 109.145833 L 126.067708 109.260417 L 126.078125 109.375 L 126.072917 109.489583 L 126.057292 109.604167 L 126.026042 109.71875 L 125.984375 109.828125 L 125.927083 109.932292 L 125.859375 110.036458 L 125.78125 110.130208 L 125.692708 110.213542 L 125.59375 110.291667 L 125.484375 110.364583 L 125.369792 110.421875 L 125.25 110.473958 L 125.119792 110.515625 L 124.989583 110.541667 L 124.859375 110.557292 Z M 124.723958 110.567708 " transform="matrix(0.75,0,0,0.75,0,0)"/>
<path style="fill-rule:nonzero;fill:rgb(26.700401%,0.4874%,32.941499%);fill-opacity:1;stroke-width:1;stroke-linecap:butt;stroke-linejoin:miter;stroke:rgb(26.700401%,0.4874%,32.941499%);stroke-opacity:1;stroke-miterlimit:10;" d="M 252.666667 544.588542 L 252.53125 544.583333 L 252.395833 544.567708 L 252.265625 544.536458 L 252.140625 544.5 L 252.020833 544.447917 L 251.901042 544.385417 L 251.796875 544.317708 L 251.697917 544.239583 L 251.609375 544.151042 L 251.53125 544.057292 L 251.463542 543.958333 L 251.40625 543.854167 L 251.364583 543.744792 L 251.333333 543.630208 L 251.317708 543.515625 L 251.3125 543.401042 L 251.322917 543.286458 L 251.34375 543.171875 L 251.380208 543.057292 L 251.432292 542.953125 L 251.494792 542.848958 L 251.567708 542.75 L 251.651042 542.661458 L 251.744792 542.578125 L 251.848958 542.505208 L 251.958333 542.4375 L 252.078125 542.380208 L 252.203125 542.338542 L 252.333333 542.302083 L 252.463542 542.28125 L 252.598958 542.270833 L 252.734375 542.270833 L 252.869792 542.28125 L 253 542.302083 L 253.130208 542.338542 L 253.255208 542.380208 L 253.375 542.4375 L 253.484375 542.505208 L 253.588542 542.578125 L 253.682292 542.661458 L 253.765625 542.75 L 253.838542 542.848958 L 253.901042 542.953125 L 253.953125 543.057292 L 253.989583 543.171875 L 254.010417 543.286458 L 254.020833 543.401042 L 254.015625 543.515625 L 254 543.630208 L 253.96875 543.744792 L 253.927083 543.854167 L 253.869792 543.958333 L 253.802083 544.057292 L 253.723958 544.151042 L 253.635417 544.239583 L 253.536458 544.317708 L 253.432292 544.385417 L 253.3125 544.447917 L 253.192708 544.5 L 253.067708 544.536458 L 252.9375 544.567708 L 252.802083 544.583333 Z M 252.666667 544.588542 " transform="matrix(0.75,0,0,0.75,0,0)"/>
<path style="fill-rule:nonzero;fill:rgb(26.700401%,0.4874%,32.941499%);fill-opacity:1;stroke-width:1;stroke-linecap:butt;stroke-linejoin:miter;stroke:rgb(26.700401%,0.4874%,32.941499%);stroke-opacity:1;stroke-miterlimit:10;" d="M 108.932292 124.119792 L 107.494792 126.088542 L 167.385417 158.786458 L 169.442708 155.963542 Z M 108.932292 124.119792 " transform="matrix(0.75,0,0,0.75,0,0)"/>
<path style="fill-rule:nonzero;fill:rgb(26.700401%,0.4874%,32.941499%);fill-opacity:1;stroke-width:1;stroke-linecap:butt;stroke-linejoin:miter;stroke:rgb(26.700401%,0.4874%,32.941499%);stroke-opacity:1;stroke-miterlimit:10;" d="M 108.213542 126.265625 L 108.078125 126.260417 L 107.947917 126.244792 L 107.817708 126.213542 L 107.6875 126.177083 L 107.567708 126.125 L 107.453125 126.0625 L 107.34375 125.994792 L 107.244792 125.916667 L 107.15625 125.828125 L 107.078125 125.734375 L 107.010417 125.635417 L 106.953125 125.53125 L 106.911458 125.421875 L 106.880208 125.307292 L 106.864583 125.192708 L 106.859375 125.078125 L 106.869792 124.963542 L 106.895833 124.848958 L 106.932292 124.734375 L 106.979167 124.630208 L 107.041667 124.526042 L 107.114583 124.427083 L 107.197917 124.338542 L 107.291667 124.255208 L 107.395833 124.182292 L 107.510417 124.114583 L 107.630208 124.057292 L 107.75 124.015625 L 107.880208 123.979167 L 108.015625 123.958333 L 108.145833 123.947917 L 108.28125 123.947917 L 108.416667 123.958333 L 108.552083 123.979167 L 108.677083 124.015625 L 108.802083 124.057292 L 108.921875 124.114583 L 109.03125 124.182292 L 109.135417 124.255208 L 109.229167 124.338542 L 109.317708 124.427083 L 109.390625 124.526042 L 109.447917 124.630208 L 109.5 124.734375 L 109.536458 124.848958 L 109.557292 124.963542 L 109.567708 125.078125 L 109.567708 125.192708 L 109.552083 125.307292 L 109.520833 125.421875 L 109.473958 125.53125 L 109.421875 125.635417 L 109.354167 125.734375 L 109.276042 125.828125 L 109.1875 125.916667 L 109.088542 125.994792 L 108.979167 126.0625 L 108.864583 126.125 L 108.739583 126.177083 L 108.614583 126.213542 L 108.484375 126.244792 L 108.348958 126.260417 Z M 108.213542 126.265625 " transform="matrix(0.75,0,0,0.75,0,0)"/>
<path style="fill-rule:nonzero;fill:rgb(26.700401%,0.4874%,32.941499%);fill-opacity:1;stroke-width:1;stroke-linecap:butt;stroke-linejoin:miter;stroke:rgb(26.700401%,0.4874%,32.941499%);stroke-opacity:1;stroke-miterlimit:10;" d="M 252.666667 544.588542 L 252.53125 544.583333 L 252.395833 544.567708 L 252.265625 544.536458 L 252.140625 544.5 L 252.020833 544.447917 L 251.901042 544.385417 L 251.796875 544.317708 L 251.697917 544.239583 L 251.609375 544.151042 L 251.53125 544.057292 L 251.463542 543.958333 L 251.40625 543.854167 L 251.364583 543.744792 L 251.333333 543.630208 L 251.317708 543.515625 L 251.3125 543.401042 L 251.322917 543.286458 L 251.34375 543.171875 L 251.380208 543.057292 L 251.432292 542.953125 L 251.494792 542.848958 L 251.567708 542.75 L 251.651042 542.661458 L 251.744792 542.578125 L 251.848958 542.505208 L 251.958333 542.4375 L 252.078125 542.380208 L 252.203125 542.338542 L 252.333333 542.302083 L 252.463542 542.28125 L 252.598958 542.270833 L 252.734375 542.270833 L 252.869792 542.28125 L 253 542.302083 L 253.130208 542.338542 L 253.255208 542.380208 L 253.375 542.4375 L 253.484375 542.505208 L 253.588542 542.578125 L 253.682292 542.661458 L 253.765625 542.75 L 253.838542 542.848958 L 253.901042 542.953125 L 253.953125 543.057292 L 253.989583 543.171875 L 254.010417 543.286458 L 254.020833 543.401042 L 254.015625 543.515625 L 254 543.630208 L 253.96875 543.744792 L 253.927083 543.854167 L 253.869792 543.958333 L 253.802083 544.057292 L 253.723958 544.151042 L 253.635417 544.239583 L 253.536458 544.317708 L 253.432292 544.385417 L 253.3125 544.447917 L 253.192708 544.5 L 253.067708 544.536458 L 252.9375 544.567708 L 252.802083 544.583333 Z M 252.666667 544.588542 " transform="matrix(0.75,0,0,0.75,0,0)"/>
<path style="fill-rule:nonzero;fill:rgb(25.393501%,26.525399%,52.998298%);fill-opacity:1;stroke-width:1;stroke-linecap:butt;stroke-linejoin:miter;stroke:rgb(25.393501%,26.525399%,52.998298%);stroke-opacity:1;stroke-miterlimit:10;" d="M 170.635417 155.890625 L 166.192708 158.859375 L 223.921875 223.171875 L 229.411458 219.5 Z M 170.635417 155.890625 " transform="matrix(0.75,0,0,0.75,0,0)"/>
<path style="fill-rule:nonzero;fill:rgb(25.393501%,26.525399%,52.998298%);fill-opacity:1;stroke-width:1;stroke-linecap:butt;stroke-linejoin:miter;stroke:rgb(25.393501%,26.525399%,52.998298%);stroke-opacity:1;stroke-miterlimit:10;" d="M 168.411458 159.791667 L 168.130208 159.776042 L 167.854167 159.744792 L 167.583333 159.682292 L 167.317708 159.598958 L 167.0625 159.494792 L 166.822917 159.369792 L 166.598958 159.223958 L 166.395833 159.0625 L 166.208333 158.880208 L 166.046875 158.6875 L 165.90625 158.479167 L 165.791667 158.255208 L 165.697917 158.03125 L 165.635417 157.796875 L 165.604167 157.557292 L 165.59375 157.3125 L 165.614583 157.072917 L 165.666667 156.838542 L 165.739583 156.604167 L 165.84375 156.380208 L 165.973958 156.166667 L 166.125 155.963542 L 166.302083 155.776042 L 166.494792 155.604167 L 166.713542 155.447917 L 166.942708 155.3125 L 167.1875 155.197917 L 167.447917 155.104167 L 167.71875 155.036458 L 167.994792 154.984375 L 168.270833 154.963542 L 168.552083 154.963542 L 168.833333 154.984375 L 169.109375 155.036458 L 169.375 155.104167 L 169.635417 155.197917 L 169.880208 155.3125 L 170.114583 155.447917 L 170.328125 155.604167 L 170.526042 155.776042 L 170.697917 155.963542 L 170.854167 156.166667 L 170.979167 156.380208 L 171.083333 156.604167 L 171.161458 156.838542 L 171.208333 157.072917 L 171.229167 157.3125 L 171.223958 157.557292 L 171.1875 157.796875 L 171.125 158.03125 L 171.036458 158.255208 L 170.921875 158.479167 L 170.78125 158.6875 L 170.614583 158.880208 L 170.427083 159.0625 L 170.223958 159.223958 L 170 159.369792 L 169.760417 159.494792 L 169.505208 159.598958 L 169.244792 159.682292 L 168.96875 159.744792 L 168.692708 159.776042 Z M 168.411458 159.791667 " transform="matrix(0.75,0,0,0.75,0,0)"/>
<path style="fill-rule:nonzero;fill:rgb(25.393501%,26.525399%,52.998298%);fill-opacity:1;stroke-width:1;stroke-linecap:butt;stroke-linejoin:miter;stroke:rgb(25.393501%,26.525399%,52.998298%);stroke-opacity:1;stroke-miterlimit:10;" d="M 252.666667 545.84375 L 252.385417 545.833333 L 252.109375 545.796875 L 251.838542 545.734375 L 251.572917 545.65625 L 251.317708 545.552083 L 251.078125 545.421875 L 250.854167 545.276042 L 250.651042 545.114583 L 250.463542 544.932292 L 250.302083 544.739583 L 250.161458 544.53125 L 250.041667 544.3125 L 249.953125 544.083333 L 249.890625 543.848958 L 249.859375 543.609375 L 249.848958 543.369792 L 249.869792 543.130208 L 249.921875 542.890625 L 249.994792 542.661458 L 250.098958 542.4375 L 250.223958 542.21875 L 250.380208 542.020833 L 250.552083 541.828125 L 250.75 541.65625 L 250.963542 541.505208 L 251.197917 541.369792 L 251.442708 541.255208 L 251.703125 541.161458 L 251.973958 541.088542 L 252.244792 541.041667 L 252.526042 541.015625 L 252.807292 541.015625 L 253.088542 541.041667 L 253.359375 541.088542 L 253.630208 541.161458 L 253.890625 541.255208 L 254.135417 541.369792 L 254.369792 541.505208 L 254.583333 541.65625 L 254.78125 541.828125 L 254.953125 542.020833 L 255.109375 542.21875 L 255.234375 542.4375 L 255.338542 542.661458 L 255.411458 542.890625 L 255.463542 543.130208 L 255.484375 543.369792 L 255.473958 543.609375 L 255.442708 543.848958 L 255.380208 544.083333 L 255.291667 544.3125 L 255.171875 544.53125 L 255.03125 544.739583 L 254.869792 544.932292 L 254.682292 545.114583 L 254.479167 545.276042 L 254.255208 545.421875 L 254.015625 545.552083 L 253.760417 545.65625 L 253.494792 545.734375 L 253.223958 545.796875 L 252.947917 545.833333 Z M 252.666667 545.84375 " transform="matrix(0.75,0,0,0.75,0,0)"/>
<path style="fill-rule:nonzero;fill:rgb(16.3625%,47.113299%,55.814803%);fill-opacity:1;stroke-width:1;stroke-linecap:butt;stroke-linejoin:miter;stroke:rgb(16.3625%,47.113299%,55.814803%);stroke-opacity:1;stroke-miterlimit:10;" d="M 231.03125 220.494792 L 222.302083 222.177083 L 247.276042 321.328125 L 258.057292 319.244792 Z M 231.03125 220.494792 " transform="matrix(0.75,0,0,0.75,0,0)"/>
<path style="fill-rule:nonzero;fill:rgb(16.3625%,47.113299%,55.814803%);fill-opacity:1;stroke-width:1;stroke-linecap:butt;stroke-linejoin:miter;stroke:rgb(16.3625%,47.113299%,55.814803%);stroke-opacity:1;stroke-miterlimit:10;" d="M 226.666667 225.171875 L 226.21875 225.151042 L 225.78125 225.09375 L 225.348958 225 L 224.927083 224.869792 L 224.526042 224.703125 L 224.145833 224.505208 L 223.791667 224.270833 L 223.463542 224.010417 L 223.166667 223.723958 L 222.90625 223.416667 L 222.6875 223.083333 L 222.5 222.734375 L 222.359375 222.375 L 222.260417 222 L 222.208333 221.619792 L 222.192708 221.239583 L 222.229167 220.859375 L 222.307292 220.484375 L 222.427083 220.114583 L 222.588542 219.760417 L 222.791667 219.416667 L 223.036458 219.098958 L 223.3125 218.796875 L 223.625 218.526042 L 223.963542 218.28125 L 224.333333 218.0625 L 224.723958 217.880208 L 225.135417 217.734375 L 225.5625 217.619792 L 226 217.546875 L 226.442708 217.505208 L 226.890625 217.505208 L 227.333333 217.546875 L 227.770833 217.619792 L 228.197917 217.734375 L 228.604167 217.880208 L 229 218.0625 L 229.364583 218.28125 L 229.708333 218.526042 L 230.020833 218.796875 L 230.296875 219.098958 L 230.541667 219.416667 L 230.744792 219.760417 L 230.90625 220.114583 L 231.026042 220.484375 L 231.104167 220.859375 L 231.135417 221.239583 L 231.125 221.619792 L 231.072917 222 L 230.973958 222.375 L 230.828125 222.734375 L 230.645833 223.083333 L 230.421875 223.416667 L 230.161458 223.723958 L 229.869792 224.010417 L 229.541667 224.270833 L 229.1875 224.505208 L 228.807292 224.703125 L 228.401042 224.869792 L 227.984375 225 L 227.552083 225.09375 L 227.109375 225.151042 Z M 226.666667 225.171875 " transform="matrix(0.75,0,0,0.75,0,0)"/>
<path style="fill-rule:nonzero;fill:rgb(16.3625%,47.113299%,55.814803%);fill-opacity:1;stroke-width:1;stroke-linecap:butt;stroke-linejoin:miter;stroke:rgb(16.3625%,47.113299%,55.814803%);stroke-opacity:1;stroke-miterlimit:10;" d="M 252.666667 547.260417 L 252.21875 547.244792 L 251.78125 547.1875 L 251.348958 547.09375 L 250.927083 546.963542 L 250.526042 546.796875 L 250.145833 546.59375 L 249.791667 546.364583 L 249.463542 546.104167 L 249.171875 545.817708 L 248.911458 545.510417 L 248.6875 545.177083 L 248.505208 544.828125 L 248.359375 544.46875 L 248.260417 544.09375 L 248.208333 543.713542 L 248.197917 543.333333 L 248.229167 542.953125 L 248.307292 542.572917 L 248.427083 542.208333 L 248.588542 541.854167 L 248.791667 541.510417 L 249.036458 541.192708 L 249.3125 540.890625 L 249.625 540.619792 L 249.963542 540.375 L 250.333333 540.15625 L 250.723958 539.973958 L 251.135417 539.828125 L 251.5625 539.713542 L 252 539.635417 L 252.442708 539.598958 L 252.890625 539.598958 L 253.333333 539.635417 L 253.770833 539.713542 L 254.197917 539.828125 L 254.609375 539.973958 L 255 540.15625 L 255.369792 540.375 L 255.708333 540.619792 L 256.020833 540.890625 L 256.296875 541.192708 L 256.541667 541.510417 L 256.744792 541.854167 L 256.90625 542.208333 L 257.026042 542.572917 L 257.104167 542.953125 L 257.135417 543.333333 L 257.125 543.713542 L 257.072917 544.09375 L 256.973958 544.46875 L 256.828125 544.828125 L 256.645833 545.177083 L 256.421875 545.510417 L 256.161458 545.817708 L 255.869792 546.104167 L 255.541667 546.364583 L 255.1875 546.59375 L 254.807292 546.796875 L 254.40625 546.963542 L 253.984375 547.09375 L 253.552083 547.1875 L 253.114583 547.244792 Z M 252.666667 547.260417 " transform="matrix(0.75,0,0,0.75,0,0)"/>
<path style="fill-rule:nonzero;fill:rgb(13.4692%,65.863597%,51.764899%);fill-opacity:1;stroke-width:1;stroke-linecap:butt;stroke-linejoin:miter;stroke:rgb(13.4692%,65.863597%,51.764899%);stroke-opacity:1;stroke-miterlimit:10;" d="M 259.765625 320.286458 L 245.567708 320.286458 L 244.619792 482.572917 L 260.713542 482.572917 Z M 259.765625 320.286458 " transform="matrix(0.75,0,0,0.75,0,0)"/>
<path style="fill-rule:nonzero;fill:rgb(13.4692%,65.863597%,51.764899%);fill-opacity:1;stroke-width:1;stroke-linecap:butt;stroke-linejoin:miter;stroke:rgb(13.4692%,65.863597%,51.764899%);stroke-opacity:1;stroke-miterlimit:10;" d="M 252.666667 326.369792 L 251.958333 326.34375 L 251.260417 326.25 L 250.572917 326.098958 L 249.90625 325.895833 L 249.270833 325.630208 L 248.666667 325.3125 L 248.104167 324.947917 L 247.583333 324.536458 L 247.114583 324.078125 L 246.703125 323.588542 L 246.348958 323.0625 L 246.057292 322.510417 L 245.833333 321.932292 L 245.677083 321.34375 L 245.588542 320.739583 L 245.567708 320.135417 L 245.619792 319.53125 L 245.744792 318.932292 L 245.9375 318.348958 L 246.192708 317.78125 L 246.515625 317.244792 L 246.901042 316.734375 L 247.34375 316.260417 L 247.838542 315.822917 L 248.380208 315.432292 L 248.963542 315.09375 L 249.588542 314.802083 L 250.239583 314.567708 L 250.916667 314.390625 L 251.609375 314.265625 L 252.3125 314.208333 L 253.020833 314.208333 L 253.723958 314.265625 L 254.416667 314.390625 L 255.09375 314.567708 L 255.744792 314.802083 L 256.369792 315.09375 L 256.953125 315.432292 L 257.494792 315.822917 L 257.989583 316.260417 L 258.432292 316.734375 L 258.817708 317.244792 L 259.140625 317.78125 L 259.395833 318.348958 L 259.588542 318.932292 L 259.713542 319.53125 L 259.765625 320.135417 L 259.744792 320.739583 L 259.65625 321.34375 L 259.5 321.932292 L 259.276042 322.510417 L 258.984375 323.0625 L 258.630208 323.588542 L 258.21875 324.078125 L 257.75 324.536458 L 257.229167 324.947917 L 256.666667 325.3125 L 256.0625 325.630208 L 255.427083 325.895833 L 254.760417 326.098958 L 254.072917 326.25 L 253.375 326.34375 Z M 252.666667 326.369792 " transform="matrix(0.75,0,0,0.75,0,0)"/>
<path style="fill-rule:nonzero;fill:rgb(13.4692%,65.863597%,51.764899%);fill-opacity:1;stroke-width:1;stroke-linecap:butt;stroke-linejoin:miter;stroke:rgb(13.4692%,65.863597%,51.764899%);stroke-opacity:1;stroke-miterlimit:10;" d="M 252.666667 549.515625 L 251.958333 549.484375 L 251.260417 549.395833 L 250.572917 549.244792 L 249.90625 549.036458 L 249.270833 548.770833 L 248.666667 548.458333 L 248.104167 548.088542 L 247.583333 547.677083 L 247.114583 547.223958 L 246.703125 546.729167 L 246.348958 546.203125 L 246.057292 545.651042 L 245.833333 545.078125 L 245.677083 544.484375 L 245.588542 543.885417 L 245.567708 543.276042 L 245.619792 542.671875 L 245.744792 542.072917 L 245.9375 541.489583 L 246.192708 540.927083 L 246.515625 540.385417 L 246.901042 539.875 L 247.34375 539.401042 L 247.838542 538.96875 L 248.380208 538.578125 L 248.963542 538.234375 L 249.588542 537.947917 L 250.239583 537.708333 L 250.916667 537.53125 L 251.609375 537.411458 L 252.3125 537.348958 L 253.020833 537.348958 L 253.723958 537.411458 L 254.416667 537.53125 L 255.09375 537.708333 L 255.744792 537.947917 L 256.369792 538.234375 L 256.953125 538.578125 L 257.494792 538.96875 L 257.989583 539.401042 L 258.432292 539.875 L 258.817708 540.385417 L 259.140625 540.927083 L 259.395833 541.489583 L 259.588542 542.072917 L 259.713542 542.671875 L 259.765625 543.276042 L 259.744792 543.885417 L 259.65625 544.484375 L 259.5 545.078125 L 259.276042 545.651042 L 258.984375 546.203125 L 258.630208 546.729167 L 258.21875 547.223958 L 257.75 547.677083 L 257.229167 548.088542 L 256.666667 548.458333 L 256.0625 548.770833 L 255.427083 549.036458 L 254.760417 549.244792 L 254.072917 549.395833 L 253.375 549.484375 Z M 252.666667 549.515625 " transform="matrix(0.75,0,0,0.75,0,0)"/>
<path style="fill-rule:nonzero;fill:rgb(47.750399%,82.144397%,31.819499%);fill-opacity:1;stroke-width:1;stroke-linecap:butt;stroke-linejoin:miter;stroke:rgb(47.750399%,82.144397%,31.819499%);stroke-opacity:1;stroke-miterlimit:10;" d="M 262.135417 482.572917 L 243.197917 482.572917 L 243.197917 543.427083 L 262.135417 543.427083 Z M 262.135417 482.572917 " transform="matrix(0.75,0,0,0.75,0,0)"/>
<path style="fill-rule:nonzero;fill:rgb(47.750399%,82.144397%,31.819499%);fill-opacity:1;stroke-width:1;stroke-linecap:butt;stroke-linejoin:miter;stroke:rgb(47.750399%,82.144397%,31.819499%);stroke-opacity:1;stroke-miterlimit:10;" d="M 252.666667 490.6875 L 251.723958 490.645833 L 250.791667 490.526042 L 249.875 490.322917 L 248.989583 490.046875 L 248.140625 489.697917 L 247.333333 489.276042 L 246.583333 488.786458 L 245.890625 488.239583 L 245.265625 487.630208 L 244.713542 486.973958 L 244.244792 486.270833 L 243.854167 485.536458 L 243.552083 484.770833 L 243.34375 483.979167 L 243.223958 483.177083 L 243.203125 482.369792 L 243.276042 481.5625 L 243.4375 480.765625 L 243.692708 479.989583 L 244.036458 479.234375 L 244.46875 478.515625 L 244.979167 477.833333 L 245.567708 477.203125 L 246.229167 476.625 L 246.953125 476.104167 L 247.729167 475.645833 L 248.557292 475.260417 L 249.427083 474.947917 L 250.328125 474.708333 L 251.255208 474.546875 L 252.192708 474.46875 L 253.140625 474.46875 L 254.078125 474.546875 L 255.005208 474.708333 L 255.90625 474.947917 L 256.776042 475.260417 L 257.604167 475.645833 L 258.380208 476.104167 L 259.104167 476.625 L 259.765625 477.203125 L 260.354167 477.833333 L 260.864583 478.515625 L 261.296875 479.234375 L 261.640625 479.989583 L 261.895833 480.765625 L 262.057292 481.5625 L 262.130208 482.369792 L 262.109375 483.177083 L 261.989583 483.979167 L 261.78125 484.770833 L 261.479167 485.536458 L 261.088542 486.270833 L 260.619792 486.973958 L 260.067708 487.630208 L 259.442708 488.239583 L 258.75 488.786458 L 258 489.276042 L 257.192708 489.697917 L 256.34375 490.046875 L 255.458333 490.322917 L 254.541667 490.526042 L 253.609375 490.645833 Z M 252.666667 490.6875 " transform="matrix(0.75,0,0,0.75,0,0)"/>
<path style="fill-rule:nonzero;fill:rgb(47.750399%,82.144397%,31.819499%);fill-opacity:1;stroke-width:1;stroke-linecap:butt;stroke-linejoin:miter;stroke:rgb(47.750399%,82.144397%,31.819499%);stroke-opacity:1;stroke-miterlimit:10;" d="M 252.666667 551.541667 L 251.723958 551.5 L 250.791667 551.380208 L 249.875 551.182292 L 248.989583 550.90625 L 248.140625 550.557292 L 247.333333 550.135417 L 246.583333 549.645833 L 245.890625 549.09375 L 245.265625 548.489583 L 244.713542 547.833333 L 244.244792 547.130208 L 243.854167 546.390625 L 243.552083 545.625 L 243.34375 544.838542 L 243.223958 544.036458 L 243.203125 543.223958 L 243.276042 542.421875 L 243.4375 541.625 L 243.692708 540.84375 L 244.036458 540.09375 L 244.46875 539.369792 L 244.979167 538.692708 L 245.567708 538.057292 L 246.229167 537.479167 L 246.953125 536.958333 L 247.729167 536.505208 L 248.557292 536.119792 L 249.427083 535.802083 L 250.328125 535.567708 L 251.255208 535.40625 L 252.192708 535.322917 L 253.140625 535.322917 L 254.078125 535.40625 L 255.005208 535.567708 L 255.90625 535.802083 L 256.776042 536.119792 L 257.604167 536.505208 L 258.380208 536.958333 L 259.104167 537.479167 L 259.765625 538.057292 L 260.354167 538.692708 L 260.864583 539.369792 L 261.296875 540.09375 L 261.640625 540.84375 L 261.895833 541.625 L 262.057292 542.421875 L 262.130208 543.223958 L 262.109375 544.036458 L 261.989583 544.838542 L 261.78125 545.625 L 261.479167 546.390625 L 261.088542 547.130208 L 260.619792 547.833333 L 260.067708 548.489583 L 259.442708 549.09375 L 258.75 549.645833 L 258 550.135417 L 257.192708 550.557292 L 256.34375 550.90625 L 255.458333 551.182292 L 254.541667 551.380208 L 253.609375 551.5 Z M 252.666667 551.541667 " transform="matrix(0.75,0,0,0.75,0,0)"/>
<path style="fill-rule:nonzero;fill:rgb(47.750399%,82.144397%,31.819499%);fill-opacity:1;stroke-width:1;stroke-linecap:butt;stroke-linejoin:miter;stroke:rgb(47.750399%,82.144397%,31.819499%);stroke-opacity:1;stroke-miterlimit:10;" d="M 219.875 543.427083 L 252.666667 494.744792 L 285.458333 543.427083 Z M 219.875 543.427083 " transform="matrix(0.75,0,0,0.75,0,0)"/>
</g>
</svg>
