<?xml version="1.0" encoding="UTF-8"?>
<!-- Created with Inkscape (http://www.inkscape.org/) -->
<svg width="380" height="250" version="1.1" viewBox="0 0 380 250" xml:space="preserve" xmlns="http://www.w3.org/2000/svg" xmlns:xlink="http://www.w3.org/1999/xlink"><defs><pattern id="pattern1927" patternTransform="matrix(.013203 -.007768 -.0040266 -.0068441 192.39 52.044)" xlink:href="#pattern686"/><pattern id="pattern1920" patternTransform="matrix(.013203 -.007768 -.0040266 -.0068441 150.72 52.044)" xlink:href="#pattern648"/><pattern id="pattern1913" patternTransform="matrix(.013203 -.007768 -.0040266 -.0068441 178.23 108.05)" xlink:href="#pattern610"/><pattern id="pattern1909" patternTransform="matrix(.013203 -.007768 -.0040266 -.0068441 150.72 126.34)" xlink:href="#pattern586"/><pattern id="pattern1880" patternTransform="matrix(.013203 -.007768 -.0040266 -.0068441 56.768 33.589)" xlink:href="#pattern398"/><pattern id="pattern1870" patternTransform="matrix(.013203 -.007768 -.0040266 -.0068441 23.182 51.828)" xlink:href="#pattern350"/><pattern id="pattern1859" patternTransform="matrix(.013203 -.007768 -.0040266 -.0068441 56.768 108.05)" xlink:href="#pattern294"/><pattern id="pattern1849" patternTransform="matrix(.013203 -.007768 -.0040266 -.0068441 23.182 126.34)" xlink:href="#pattern246"/><marker id="Arrow2Send" overflow="visible" orient="auto"><path transform="scale(.3) rotate(180) translate(-2.3)" d="m8.7186 4.0337-10.926-4.0177 10.926-4.0177c-1.7455 2.3721-1.7354 5.6175-6e-7 8.0354z" fill="context-stroke" fill-rule="evenodd" stroke="context-stroke" stroke-linejoin="round" stroke-width=".625"/></marker><clipPath id="clipPath234"><path d="m0 0h200v100h-200z"/></clipPath><pattern id="pattern246" width="200" height="100" patternTransform="matrix(.011587 -.0068173 -.0035338 -.0060065 18.547 109.16)" patternUnits="userSpaceOnUse"><g clip-path="url(#clipPath234)"><path d="m0-50h100v200h-100v-200z" fill="#729fcf" fill-opacity=".25"/></g></pattern><clipPath id="clipPath282"><path d="m0 0h200v100h-200z"/></clipPath><pattern id="pattern294" width="200" height="100" patternTransform="matrix(.011587 -.0068173 -.0035338 -.0060065 48.022 93.103)" patternUnits="userSpaceOnUse"><g clip-path="url(#clipPath282)"><path d="m0-50h100v200h-100v-200z" fill="#ad7fa8" fill-opacity=".25"/></g></pattern><clipPath id="clipPath338"><path d="m0 0h200v100h-200z"/></clipPath><pattern id="pattern350" width="200" height="100" patternTransform="matrix(.011587 -.0068173 -.0035338 -.0060065 18.547 43.766)" patternUnits="userSpaceOnUse"><g clip-path="url(#clipPath338)"><path d="m0-50h100v200h-100v-200z" fill="#729fcf" fill-opacity=".25"/></g></pattern><clipPath id="clipPath386"><path d="m0 0h200v100h-200z"/></clipPath><pattern id="pattern398" width="200" height="100" patternTransform="matrix(.011587 -.0068173 -.0035338 -.0060065 48.022 27.759)" patternUnits="userSpaceOnUse"><g clip-path="url(#clipPath386)"><path d="m0-50h100v200h-100v-200z" fill="#ad7fa8" fill-opacity=".25"/></g></pattern><clipPath id="clipPath574"><path d="m0 0h200v100h-200z"/></clipPath><pattern id="pattern586" width="200" height="100" patternTransform="matrix(.011587 -.0068173 -.0035338 -.0060065 130.47 109.16)" patternUnits="userSpaceOnUse"><g clip-path="url(#clipPath574)"><path d="m0-50h100v200h-100v-200z" fill="#729fcf" fill-opacity=".25"/></g></pattern><clipPath id="clipPath598"><path d="m0 0h200v100h-200z"/></clipPath><pattern id="pattern610" width="200" height="100" patternTransform="matrix(.011587 -.0068173 -.0035338 -.0060065 154.62 93.103)" patternUnits="userSpaceOnUse"><g clip-path="url(#clipPath598)"><path d="m0-50h100v200h-100v-200z" fill="#ad7fa8" fill-opacity=".25"/></g></pattern><clipPath id="clipPath636"><path d="m0 0h200v100h-200z"/></clipPath><pattern id="pattern648" width="200" height="100" patternTransform="matrix(.011587 -.0068173 -.0035338 -.0060065 130.47 43.955)" patternUnits="userSpaceOnUse"><g clip-path="url(#clipPath636)"><path d="m0-50h100v200h-100v-200z" fill="#729fcf" fill-opacity=".25"/></g></pattern><clipPath id="clipPath674"><path d="m0 0h200v100h-200z"/></clipPath><pattern id="pattern686" width="200" height="100" patternTransform="matrix(.011587 -.0068173 -.0035338 -.0060065 167.04 43.955)" patternUnits="userSpaceOnUse"><g clip-path="url(#clipPath674)"><path d="m0-50h100v200h-100v-200z" fill="#729fcf" fill-opacity=".25"/></g></pattern></defs><g transform="matrix(1.3333 0 0 1.3333 -2.5048 -1.4912)"><g fill="none" stroke="#000" stroke-dasharray="0.369089, 0.738179" stroke-width=".36909"><path d="m150.78 30.187v141.39"/><path d="m214.83 30.13v141.44"/><path d="m23.182 30.187v141.39"/><path d="m56.751 30.13v141.44"/><path d="m108.97 30.13v141.44"/><path d="m162.61 30.187v141.39"/><path d="m192.37 30.187v141.39"/><path d="m234.9 30.13v141.44"/></g><path d="m15.241 40.861h86.202v11.372h-86.202z" fill="#fff"/><path d="m15.696 111.6h86.202v11.372h-86.202z" fill="#fff"/><path d="m270.44 100.27-0.16978-0.0125-0.16864-0.0228-0.16066-0.0399-0.16408-0.0581-0.15155-0.0752-0.14243-0.08546-0.13787-0.10141-0.1242-0.11622-0.11167-0.1242-0.098-0.13787-0.0843-0.14699-0.0718-0.15155-0.0535-0.16066-0.0399-0.16408-0.0217-0.16522v-0.16864l8e-3 -0.16978 0.0319-0.16408 0.0444-0.16066 0.0672-0.1561 0.0752-0.15041 0.0889-0.14243 0.1071-0.1299 0.11965-0.1242 0.13331-0.10711 0.13902-0.09344 0.14585-0.07976 0.1561-0.06723 0.16522-0.049 0.16408-0.03077 0.17434-0.01823h0.16408l0.1732 0.01823 0.16522 0.03077 0.16408 0.049 0.1561 0.06723 0.14699 0.07976 0.13788 0.09344 0.13331 0.10711 0.12079 0.1242 0.1071 0.1299 0.0889 0.14243 0.0752 0.15041 0.0672 0.1561 0.0444 0.16066 0.0308 0.16408 9e-3 0.16978v0.16864l-0.0228 0.16522-0.0399 0.16408-0.0536 0.16066-0.0707 0.15155-0.0843 0.14699-0.098 0.13787-0.11167 0.1242-0.1242 0.11622-0.13787 0.10141-0.14243 0.08546-0.15155 0.0752-0.16522 0.0581-0.15952 0.0399-0.16978 0.0228z" fill="none" stroke="#709ecf" stroke-miterlimit="10" stroke-width=".61865"/><g><path d="m264.54 101.96 5.9069-10.126 5.9058 10.126z" fill="#ab7da6"/><path d="m270.36 117.36c-0.97387 0.0245-1.7515 0.97168-1.6216 1.9303v26.751h3.4102c-6e-3 -9.0313 0.0114-18.075-8e-3 -27.099-0.0379-0.90748-0.88148-1.6341-1.7803-1.583z" fill="#faae3d" stroke="#faae3d" stroke-miterlimit="10" stroke-width=".61865"/><path d="m270.36 144.36c-0.97643 0.0146-1.7523 0.97173-1.6216 1.9288v26.748h3.4102c-6e-3 -9.0299 0.0102-18.072-8e-3 -27.094-0.0348-0.90749-0.87924-1.643-1.7804-1.583z" fill="#709ecf" stroke="#709ecf" stroke-miterlimit="10" stroke-width=".61865"/></g><path d="m264.54 176.41 5.9024-10.125 5.9058 10.125z" fill="#ad7fa8" stroke="#ab7da6" stroke-miterlimit="10" stroke-width=".61865"/><g><path d="m270.36 42.905c-0.97345 0.0204-1.7503 0.97256-1.6216 1.9288v26.751h3.4102c-6e-3 -9.0308 0.0114-18.074-8e-3 -27.097-0.0365-0.90539-0.88181-1.6394-1.7804-1.5831z" fill="#faae3d" stroke="#faae3d" stroke-miterlimit="10" stroke-width=".61865"/><path d="m270.36 69.903c-0.97665 0.01576-1.7521 0.97326-1.6216 1.9303v26.747h3.4102c-6e-3 -9.0299 0.0102-18.072-8e-3 -27.094-0.034-0.9069-0.87987-1.6433-1.7805-1.5831z" fill="#709ecf" stroke="#709ecf" stroke-miterlimit="10" stroke-width=".61865"/><path d="m270.45 73.277-0.17434-0.0091-0.16408-0.02621-0.16522-0.04444-0.16408-0.05811-0.15155-0.06723-0.14243-0.08888-0.13787-0.10255-0.1242-0.11508-0.11167-0.12534-0.098-0.13787-0.0843-0.14243-0.0718-0.1561-0.0535-0.15952-0.0399-0.16522-0.0217-0.16408v-0.16978l8e-3 -0.16864 0.0319-0.16522 0.0444-0.15952 0.0627-0.16066 0.0798-0.14699 0.0889-0.14243 0.1071-0.13332 0.11965-0.11964 0.12989-0.10711 0.14244-0.09343 0.14585-0.0809 0.1561-0.06609 0.16522-0.049 0.16408-0.03532 0.17434-0.01367h0.16408l0.1732 0.01367 0.16522 0.03532 0.16066 0.049 0.15952 0.06609 0.14699 0.0809 0.13788 0.09343 0.13331 0.10711 0.12079 0.11964 0.1071 0.13332 0.0889 0.14243 0.0752 0.14699 0.0672 0.16066 0.0444 0.15952 0.0308 0.16522 9e-3 0.16864v0.16978l-0.0262 0.16408-0.0365 0.16522-0.057 0.15952-0.0672 0.1561-0.0843 0.14243-0.098 0.13787-0.11167 0.12534-0.12875 0.11508-0.13332 0.10255-0.14699 0.08888-0.15155 0.06723-0.16066 0.05811-0.16408 0.04444-0.16522 0.02621z" fill="#709ecf"/></g><path d="m264.54 101.96 5.9024-10.126 5.9058 10.126z" fill="#ad7fa8" stroke="#ab7da6" stroke-miterlimit="10" stroke-width=".61865"/><g fill="#d3d7cf"><path d="m18.178 12.143h10.006v10.371h-10.006z"/><path d="m51.748 12.143h10.006v10.371h-10.006z"/><path d="m103.97 12.143h10.01v10.371h-10.01z"/><path d="m145.78 12.143h10.01v10.371h-10.01z"/><path d="m173.18 12.143h10.01v10.371h-10.01z"/><path d="m209.83 12.143h10.006v10.371h-10.006z"/></g><path d="m257.3 135.48h8.2246" fill="none" stroke="#000" stroke-miterlimit="10" stroke-width="1.3875"/><path d="m268.18 138.15-5.3053-2.6447 5.3053-2.6618z"/><path d="m257.3 153.35h8.2246" fill="none" stroke="#000" stroke-miterlimit="10" stroke-width="1.3875"/><path d="m268.18 156.01-5.3053-2.6435 5.3053-2.6618z"/><path d="m257.3 171.52h8.2246" fill="none" stroke="#000" stroke-miterlimit="10" stroke-width="1.3875"/><path d="m268.18 174.18-5.3053-2.6447 5.3053-2.6572z"/><g fill="#000000" font-family="Arial" stroke-width="1.1394"><text x="105.91177" y="184.22939" font-size="11.394px"><tspan x="105.91177" y="184.22939" font-family="'Linux Biolinum O'" stroke-width="1.1394">t</tspan></text><text x="109.07197" y="186.5083" font-size="7.4064px"><tspan x="109.07197" y="186.5083" font-family="'Linux Biolinum O'" stroke-width="1.1394">1</tspan></text><text x="159.06647" y="184.2294" font-size="11.394px"><tspan x="159.06647" y="184.2294" font-family="'Linux Biolinum O'" stroke-width="1.1394">t</tspan></text><text x="162.22667" y="186.5083" font-size="7.4064px"><tspan x="162.22667" y="186.5083" font-family="'Linux Biolinum O'" stroke-width="1.1394">2</tspan></text><text x="211.25964" y="184.18239" font-size="11.394px"><tspan x="211.25964" y="184.18239" font-family="'Linux Biolinum O'" stroke-width="1.1394">t</tspan></text><text x="214.41985" y="186.46129" font-size="7.4064px"><tspan x="214.41985" y="186.46129" font-family="'Linux Biolinum O'" stroke-width="1.1394">3</tspan></text></g><g fill="none" stroke="#000" stroke-width=".4273"><path d="m108.97 175.53v-4.0018"/><path d="m162.61 175.53v-4.0018"/><path d="m214.83 175.53v-4.0018"/></g><g><text x="3.6404197" y="50.329544" fill="#000000" font-family="'Linux Biolinum O'" font-size="12px"/><path d="m79.13 53.568h30.022v7.46h-30.022z" fill="#fcaf3e" fill-opacity=".25"/><path d="m206.73 53.568h30.022v7.46h-30.022z" fill="#fcaf3e" fill-opacity=".25"/></g><text x="3.9154022" y="51.096535" font-family="'Linux Biolinum O'" font-size="12px" letter-spacing="0px" stroke-width=".85459" word-spacing="0px" style="line-height:1.25" xml:space="preserve"><tspan x="3.9154022" y="51.096535" font-size="12px" stroke-width=".85459"><tspan font-size="12px" font-weight="bold" stroke-width=".85459">A</tspan>    without inhibition</tspan></text><text x="3.9154022" y="121.1197" font-family="'Linux Biolinum O'" font-size="12px" letter-spacing="0px" stroke-width=".85459" word-spacing="0px" style="line-height:1.25" xml:space="preserve"><tspan x="3.9154022" y="121.1197" font-size="12px" stroke-width=".85459"><tspan font-size="12px" font-weight="bold" stroke-width=".85459">B</tspan>    with inhibition</tspan></text><g stroke="#000"><path d="m22.813 57.298h55.575" fill="none" stroke-dasharray="0.427296, 0.427296" stroke-width=".4273"/><path d="m76.678 57.298-0.85459 0.85459 2.9911-0.85459-2.9911-0.85459z" fill-rule="evenodd" stroke-width=".22789"/><path d="m23.182 61.028v-7.46" fill="none" stroke-width=".4273"/><path d="m79.13 61.028v-7.46" fill="none" stroke-dasharray="0.745998, 0.373001" stroke-width=".373"/></g><path d="m23.182 53.568h55.949v7.46h-55.949z" fill="#fcaf3e" fill-opacity=".25"/><g fill="none" stroke="#000"><path d="m56.751 78.89v-7.46" stroke-width=".4273"/><path d="m112.7 78.89v-7.46" stroke-dasharray="0.745998, 0.373001" stroke-width=".373"/><path d="m56.751 75.16h55.205" stroke-dasharray="0.427296, 0.427296" stroke-width=".4273"/></g><path d="m110.25 75.16-0.85459 0.85459 2.9911-0.85459-2.9911-0.85459z" fill-rule="evenodd" stroke="#000" stroke-width=".22789"/><path d="m56.751 71.43h55.949v7.46h-55.949z" fill="#729fcf" fill-opacity=".25"/><path d="m23.182 71.377h55.949v7.46h-55.949z" fill="url(#pattern1849)"/><g stroke="#000"><path d="m15.722 61.028h232.23" fill="none" stroke-width=".4273"/><path d="m246.24 61.028-0.85459 0.85459 2.9911-0.85459-2.9911-0.85459z" fill-rule="evenodd" stroke-width=".22789"/><path d="m15.722 78.89h232.23" fill="none" stroke-width=".4273"/><path d="m246.24 78.89-0.85459 0.85459 2.9911-0.85459-2.9911-0.85459z" fill-rule="evenodd" stroke-width=".22789"/><path d="m15.722 97.068h232.23" fill="none" stroke-width=".4273"/><path d="m246.24 97.068-0.85459 0.85459 2.9911-0.85459-2.9911-0.85459z" fill-rule="evenodd" stroke-width=".22789"/><path d="m108.97 97.068v-7.46" fill="none" stroke-width=".373"/></g><path d="m56.751 89.608h55.949v7.46h-55.949z" fill="url(#pattern1859)"/><g stroke="#000"><path d="m22.813 131.75h55.575" fill="none" stroke-dasharray="0.427296, 0.427296" stroke-width=".4273"/><g><path d="m76.678 131.75-0.85459 0.85459 2.9911-0.85459-2.9911-0.85459z" fill-rule="evenodd" stroke-width=".22789"/><path d="m23.182 135.48v-7.46" fill="none" stroke-width=".4273"/><path d="m79.13 135.48v-7.46" fill="none" stroke-width=".4273"/></g></g><path d="m23.182 128.02h55.949v7.46h-55.949z" fill="#fcaf3e" fill-opacity=".25"/><g fill="none" stroke="#000" stroke-width=".4273"><path d="m56.751 153.35v-7.46"/><path d="m112.7 153.35v-7.46"/><path d="m56.751 149.62h55.205" stroke-dasharray="0.427296, 0.427296"/></g><path d="m110.25 149.62-0.85459 0.85459 2.9911-0.85459-2.9911-0.85459z" fill-rule="evenodd" stroke="#000" stroke-width=".22789"/><path d="m56.751 145.89h55.949v7.46h-55.949z" fill="#729fcf" fill-opacity=".25"/><path d="m23.182 145.89h55.949v7.46h-55.949z" fill="url(#pattern1870)"/><g stroke="#000"><path d="m15.722 135.48h232.23" fill="none" stroke-width=".4273"/><path d="m246.24 135.48-0.85459 0.85459 2.9911-0.85459-2.9911-0.85459z" fill-rule="evenodd" stroke-width=".22789"/><path d="m15.722 153.35h232.23" fill="none" stroke-width=".4273"/><path d="m246.24 153.35-0.85459 0.85459 2.9911-0.85459-2.9911-0.85459z" fill-rule="evenodd" stroke-width=".22789"/><path d="m15.722 171.52h232.23" fill="none" stroke-width=".4273"/><path d="m246.24 171.52-0.85459 0.85459 2.9911-0.85459-2.9911-0.85459z" fill-rule="evenodd" stroke-width=".22789"/><path d="m108.97 171.52v-7.4589" fill="none" stroke-width=".4273"/></g><path d="m56.751 164.06h55.949v7.46h-55.949z" fill="url(#pattern1880)"/><path d="m15.722 29.983h232.23" fill="none" stroke="#000" stroke-width=".373"/><path d="m246.46 29.983-0.74748 0.74292 2.6128-0.74292-2.6128-0.74748z" fill-rule="evenodd" stroke="#000" stroke-width=".19893"/><g fill="none" stroke="#000"><path d="m108.97 30.13v-7.46" stroke-width=".4273"/><path d="m56.751 30.13v-7.46" stroke-width=".4273"/><path d="m23.182 30.187v-7.4589" stroke-width=".42635"/><g stroke-width=".4273"><path d="m129.04 30.187v-7.4589"/><path d="m140.38 30.187v-7.4589"/><path d="m150.78 30.187v-7.4589"/><path d="m162.61 30.13v-7.46"/><path d="m178.19 30.187v-7.4589"/><path d="m192.37 30.187v-7.4589"/><path d="m214.83 30.13v-7.46"/><path d="m223.56 30.187v-7.4589"/><path d="m234.9 30.187v-7.4589"/></g></g><g font-family="CharterBT" font-size="13.673px" stroke-width="1.1394"><text x="19.287121" y="21.182985" fill="#f57900"><tspan x="19.287121" y="21.182985" font-family="'Linux Biolinum O'" font-size="12px" stroke-width="1.1394">A</tspan></text><text x="257.33127" y="57.463772" fill="#f57900"><tspan x="257.33127" y="57.463772" font-family="'Linux Biolinum O'" font-size="12px" stroke-width="1.1394">A</tspan></text><text x="52.857334" y="21.182985" fill="#3465a4"><tspan x="52.857334" y="21.182985" font-family="'Linux Biolinum O'" font-size="12px" stroke-width="1.1394">B</tspan></text><text x="257.33127" y="75.325836" fill="#3465a4"><tspan x="257.33127" y="75.325836" font-family="'Linux Biolinum O'" font-size="12px" stroke-width="1.1394">B</tspan></text><text x="104.89624" y="21.182985" fill="#75507b"><tspan x="104.89624 124.96202" y="21.182985" font-family="'Linux Biolinum O'" font-size="12px" stroke-width="1.1394">CC</tspan></text><text x="136.65973" y="21.182985" fill="#3465a4"><tspan x="136.65973" y="21.182985" font-family="'Linux Biolinum O'" font-size="12px" stroke-width="1.1394">B</tspan></text><text x="146.88525" y="21.182985" fill="#f57900"><tspan x="146.88525" y="21.182985" font-family="'Linux Biolinum O'" font-size="12px" stroke-width="1.1394">A</tspan></text><text x="158.53555" y="21.182985" fill="#75507b"><tspan x="158.53555" y="21.182985" font-family="'Linux Biolinum O'" font-size="12px" stroke-width="1.1394">C</tspan></text><text x="257.33127" y="93.419533" fill="#75507b"><tspan x="257.33127" y="93.419533" font-family="'Linux Biolinum O'" font-size="12px" stroke-width="1.1394">C</tspan></text><text x="174.29556" y="21.182985" fill="#3465a4"><tspan x="174.29556" y="21.182985" font-family="'Linux Biolinum O'" font-size="12px" stroke-width="1.1394">B</tspan></text><text x="188.47296" y="21.182985" fill="#f57900"><tspan x="188.47296" y="21.182985" font-family="'Linux Biolinum O'" font-size="12px" stroke-width="1.1394">A</tspan></text><text x="210.75586" y="21.182985" fill="#75507b"><tspan x="210.75586" y="21.182985" font-family="'Linux Biolinum O'" font-size="12px" stroke-width="1.1394">C</tspan></text><text x="220.17763" y="21.182985" fill="#3465a4"><tspan x="220.17763" y="21.182985" font-family="'Linux Biolinum O'" font-size="12px" stroke-width="1.1394">B</tspan></text><text x="231.00597" y="21.182985" fill="#f57900"><tspan x="231.00597" y="21.182985" font-family="'Linux Biolinum O'" font-size="12px" stroke-width="1.1394">A</tspan></text></g><g fill="none" stroke="#000"><g stroke-width=".85459"><path d="m28.185 12.143c7.1184-7.1183 16.582-7.1183 23.439 0" marker-end="url(#Arrow2Send)"/><path d="m61.753 12.143c7.1184-7.1183 35.038-7.1183 42.156 0" marker-end="url(#Arrow2Send)"/><path d="m155.79 12.143c7.1184-7.1183 11.552-7.1183 17.398 0" marker-end="url(#Arrow2Send)"/><path d="m183.2 12.143c7.1184-7.1183 19.516-7.1183 26.635 0" marker-end="url(#Arrow2Send)"/></g><path d="m150.69 57.298h55.295" stroke-dasharray="0.427296, 0.427296" stroke-width=".4273"/></g><g stroke="#000"><path d="m204.28 57.298-0.85459 0.85459 2.9911-0.85459-2.9911-0.85459z" fill-rule="evenodd" stroke-width=".22789"/><path d="m150.78 61.028v-7.46" fill="none" stroke-width=".4273"/><path d="m206.73 61.028v-7.46" fill="none" stroke-dasharray="0.745998, 0.373001" stroke-width=".373"/></g><path d="m150.78 53.568h55.953v7.46h-55.953z" fill="#fcaf3e" fill-opacity=".25"/><g fill="none" stroke="#000"><path d="m178.18 78.89v-7.46" stroke-width=".4273"/><path d="m234.14 78.89v-7.46" stroke-dasharray="0.745998, 0.373001" stroke-width=".373"/><path d="m178.18 75.16h55.205" stroke-dasharray="0.427296, 0.427296" stroke-width=".4273"/></g><path d="m231.68 75.16-0.85459 0.85459 2.9911-0.85459-2.9911-0.85459z" fill-rule="evenodd" stroke="#000" stroke-width=".22789"/><path d="m178.18 71.43h55.949v7.46h-55.949z" fill="#729fcf" fill-opacity=".25"/><path d="m150.72 71.377h55.953v7.46h-55.953z" fill="url(#pattern1909)"/><path d="m214.83 97.068v-7.46" fill="none" stroke="#000" stroke-width=".4273"/><path d="m178.21 89.608h55.949v7.46h-55.949z" fill="url(#pattern1913)"/><g stroke="#000"><path d="m150.81 131.59h11.127" fill="none" stroke-dasharray="0.427296, 0.427296" stroke-width=".4273"/><g><path d="m160.22 131.59-0.85459 0.85459 2.9911-0.85459-2.9911-0.85459z" fill-rule="evenodd" stroke-width=".22789"/><path d="m150.78 135.27v-7.3836" fill="none" stroke-width=".4273"/><path d="m162.67 135.27v-7.3836" fill="none" stroke-width=".4273"/></g></g><path d="m150.78 127.89h11.889v7.3836h-11.889z" fill="#fcaf3e" fill-opacity=".25"/><path d="m150.72 145.67h11.929v7.46h-11.929z" fill="url(#pattern1920)"/><g stroke="#000"><path d="m192.34 131.59h21.694" fill="none" stroke-dasharray="0.427296, 0.427296" stroke-width=".4273"/><g><path d="m212.32 131.59-0.85459 0.85459 2.9911-0.85459-2.9911-0.85459z" fill-rule="evenodd" stroke-width=".22789"/><path d="m192.37 135.27v-7.3836" fill="none" stroke-width=".4273"/><path d="m214.85 135.27v-7.3836" fill="none" stroke-width=".4273"/></g></g><path d="m192.37 127.89h22.478v7.3836h-22.478z" fill="#fcaf3e" fill-opacity=".25"/><path d="m192.39 145.67h22.486v7.46h-22.486z" fill="url(#pattern1927)"/><g stroke="#000"><path d="m234.87 131.59h13.22" fill="none" stroke-dasharray="0.427296, 0.427296" stroke-width=".4273"/><path d="m246.38 131.59-0.85459 0.85459 2.9911-0.85459-2.9911-0.85459z" fill-rule="evenodd" stroke-width=".22789"/><path d="m234.9 135.27v-7.3836" fill="none" stroke-width=".4273"/></g><path d="m234.9 127.89h13.064v7.3836h-13.064z" fill="#fcaf3e" fill-opacity=".25"/><path d="m257.3 61.028h8.2246" fill="none" stroke="#000" stroke-miterlimit="10" stroke-width="1.3875"/><path d="m268.18 63.69-5.3053-2.6447 5.3053-2.6606z"/><path d="m257.3 78.89h8.2246" fill="none" stroke="#000" stroke-miterlimit="10" stroke-width="1.3875"/><path d="m268.18 81.552-5.3053-2.6447 5.3053-2.6618z"/><path d="m257.3 97.068h8.2246" fill="none" stroke="#000" stroke-miterlimit="10" stroke-width="1.3875"/><path d="m268.18 99.73-5.3053-2.6492 5.3053-2.6572z"/><path d="m283.63 128.33h-8.2257" fill="none" stroke="#000" stroke-miterlimit="10" stroke-width="1.3875"/><g><path d="m272.75 130.99 5.3019-2.6435-5.3019-2.6618z"/><path d="m277.16 124.2c0.15154 0.0843 0.49908 0.0581 0.64151 0v-2.1319h-4.0906c-0.0581 0.14243-0.0353 0.56061 0 0.65405h3.4491z"/><g font-family="CharterBT" font-size="13.673px" stroke-width="1.1394"><text x="257.33127" y="131.77757" fill="#f57900"><tspan x="257.33127" y="131.77757" font-family="'Linux Biolinum O'" font-size="12px" stroke-width="1.1394">A</tspan></text><text x="257.33127" y="149.63963" fill="#3465a4"><tspan x="257.33127" y="149.63963" font-family="'Linux Biolinum O'" font-size="12px" stroke-width="1.1394">B</tspan></text><text x="257.33127" y="167.73332" fill="#75507b"><tspan x="257.33127" y="167.73332" font-family="'Linux Biolinum O'" font-size="12px" stroke-width="1.1394">C</tspan></text><text x="277.69641" y="126.67625" fill="#75507b"><tspan x="277.69641" y="126.67625" font-family="'Linux Biolinum O'" font-size="12px" stroke-width="1.1394">C</tspan></text></g></g></g></svg>
